<svg width="17" height="17" viewBox="0 0 17 17" fill="none" xmlns="http://www.w3.org/2000/svg">
    <path d="M9.06397 2.12602C8.73593 1.79798 8.20407 1.79798 7.87603 2.12602L1.99603 8.00602C1.66799 8.33406 1.66799 8.86592 1.99603 9.19396C2.32407 9.522 2.85593 9.522 3.18397 9.19396L3.43 8.94793V14.48C3.43 14.9439 3.80608 15.32 4.27 15.32H5.95C6.41392 15.32 6.79 14.9439 6.79 14.48V12.8C6.79 12.3361 7.16608 11.96 7.63 11.96H9.31C9.77392 11.96 10.15 12.3361 10.15 12.8V14.48C10.15 14.9439 10.5261 15.32 10.99 15.32H12.67C13.1339 15.32 13.51 14.9439 13.51 14.48V8.94793L13.756 9.19396C14.0841 9.522 14.6159 9.522 14.944 9.19396C15.272 8.86592 15.272 8.33406 14.944 8.00602L9.06397 2.12602Z" fill="#0F172A"/>
</svg>
