<svg width="134" height="134" viewBox="0 0 134 134" fill="none" xmlns="http://www.w3.org/2000/svg">
    <rect width="134" height="134" rx="67" fill="white"/>
    <path d="M45.79 68.3055C45.79 64.5545 46.658 61.501 48.394 59.145C50.13 56.758 52.393 54.991 55.183 53.844C58.004 52.697 61.011 52.1235 64.204 52.1235C65.599 52.1235 67.3505 52.1545 69.4585 52.2165C71.5975 52.2785 73.5195 52.48 75.2245 52.821V62.028C73.8915 61.718 72.2795 61.5475 70.3885 61.5165C68.5285 61.4545 66.9785 61.4235 65.7385 61.4235C63.6615 61.4235 62.1735 61.9815 61.2745 63.0975C60.3755 64.1825 59.926 65.593 59.926 67.329C59.926 68.569 60.3135 69.6075 61.0885 70.4445C61.8635 71.2505 62.902 71.6535 64.204 71.6535C66.064 71.6535 67.955 70.987 69.877 69.654C71.799 68.321 73.4265 66.492 74.7595 64.167L76.8055 73.374C75.5965 74.8 74.217 76.2105 72.667 77.6055C71.117 79.0005 69.3035 80.1475 67.2265 81.0465C65.1495 81.9455 62.716 82.395 59.926 82.395C56.733 82.395 54.0825 81.682 51.9745 80.256C49.8975 78.83 48.3475 77.032 47.3245 74.862C46.3015 72.692 45.79 70.5065 45.79 68.3055ZM87.9655 74.304C87.7175 75.575 87.144 76.9545 86.245 78.4425C85.346 79.9305 84.447 81.031 83.548 81.744C80.82 81.682 78.557 81.062 76.759 79.884C74.992 78.706 73.628 77.2645 72.667 75.5595C71.737 73.8235 71.1325 72.134 70.8535 70.491V50.589C70.8535 48.636 70.3575 47.1635 69.3655 46.1715C68.4045 45.1795 66.87 44.6835 64.762 44.6835C62.778 44.6835 60.608 45.009 58.252 45.66C55.896 46.28 53.4935 46.9465 51.0445 47.6595C50.0215 46.4815 49.2155 44.9625 48.6265 43.1025C48.0685 41.2115 47.712 39.367 47.557 37.569C49.634 36.701 51.9435 35.9725 54.4855 35.3835C57.0275 34.7635 59.554 34.2985 62.065 33.9885C64.607 33.6475 66.87 33.477 68.854 33.477C71.582 33.477 74.2015 33.9885 76.7125 35.0115C79.2235 36.0035 81.285 37.662 82.897 39.987C84.54 42.281 85.3615 45.3965 85.3615 49.3335V68.259C85.3615 69.592 85.563 70.77 85.966 71.793C86.4 72.816 87.0665 73.653 87.9655 74.304Z" fill="black"/>
    <path fill-rule="evenodd" clip-rule="evenodd" d="M105.223 93.9464C94.5707 101.811 79.0764 106 65.7126 106C46.9902 106 30.2047 99.1031 17.4219 87.6298C16.4535 86.7277 17.2928 85.5027 18.5193 86.2117C32.2706 94.2043 49.2499 98.9742 66.81 98.9742C78.6245 98.9742 91.6654 96.5249 103.674 91.4326C105.481 90.7237 106.966 92.6574 105.223 93.9464Z" fill="#FF9900"/>
    <path fill-rule="evenodd" clip-rule="evenodd" d="M112.154 87.1023C110.007 84.8729 97.8312 86.0288 92.4091 86.6069C90.7721 86.7719 90.4652 85.616 91.9998 84.7902C101.719 79.2579 117.577 80.9092 119.418 82.7259C121.26 84.5425 118.907 97.4227 109.8 103.534C108.368 104.442 107.038 103.947 107.652 102.708C109.699 98.5794 114.303 89.4136 112.154 87.1023Z" fill="#FF9900"/>
</svg>
