<svg width="131" height="131" viewBox="0 0 131 131" fill="none" xmlns="http://www.w3.org/2000/svg">
    <path d="M106.047 94.4702C99.6605 103.373 90.5466 109.953 80.0856 113.212C69.6246 116.472 58.3865 116.233 48.0732 112.533C37.76 108.832 28.9335 101.872 22.9306 92.7059C16.9277 83.5396 14.0754 72.6668 14.8057 61.7342C15.5361 50.8017 19.8092 40.4049 26.978 32.1185C34.1468 23.8322 43.8207 18.1077 54.5345 15.8122C65.2483 13.5166 76.4183 14.775 86.3528 19.3967C96.2873 24.0185 104.445 31.7518 109.591 41.4254L65.0936 65.0936L106.047 94.4702Z" fill="#8D4BFA"/>
    <path d="M101.23 45.802C96.9791 37.9532 90.2877 31.7026 82.168 27.9959C74.0483 24.2892 64.9422 23.3282 56.2277 25.2583C47.5131 27.1884 39.6643 31.9046 33.8692 38.6931C28.074 45.4817 24.6477 53.9732 24.1089 62.8827C23.57 71.7922 25.9479 80.6347 30.8827 88.0722C35.8175 95.5097 43.0407 101.137 51.4591 104.104C59.8775 107.07 69.0331 107.214 77.5403 104.512C86.0476 101.811 93.4435 96.4127 98.6089 89.1334L65.1099 65.3624L101.23 45.802Z" fill="#C3B3EE"/>
    <mask id="path-3-inside-1_1_750" fill="white">
        <path d="M96.9398 57.4121C95.0879 49.7343 90.5246 42.984 84.0902 38.4041C77.6557 33.8242 69.7833 31.723 61.9224 32.4875C54.0615 33.2519 46.7414 36.8304 41.3099 42.5643C35.8783 48.2981 32.7011 55.8011 32.3631 63.6918C32.0252 71.5826 34.5492 79.3298 39.4706 85.507C44.392 91.6842 51.3793 95.8756 59.146 97.3093C66.9128 98.7431 74.936 97.3227 81.7385 93.3097C88.541 89.2968 93.6648 82.9614 96.1664 75.4701L65.0931 65.0937L96.9398 57.4121Z"/>
    </mask>
    <path d="M96.9398 57.4121C95.0879 49.7343 90.5246 42.984 84.0902 38.4041C77.6557 33.8242 69.7833 31.723 61.9224 32.4875C54.0615 33.2519 46.7414 36.8304 41.3099 42.5643C35.8783 48.2981 32.7011 55.8011 32.3631 63.6918C32.0252 71.5826 34.5492 79.3298 39.4706 85.507C44.392 91.6842 51.3793 95.8756 59.146 97.3093C66.9128 98.7431 74.936 97.3227 81.7385 93.3097C88.541 89.2968 93.6648 82.9614 96.1664 75.4701L65.0931 65.0937L96.9398 57.4121Z" stroke="white" stroke-width="10.08" mask="url(#path-3-inside-1_1_750)"/>
    <circle cx="65.0938" cy="65.0936" r="20.16" fill="white"/>
    <path d="M42.1603 49.5957C47.7043 41.4057 55.7198 36.9527 66.3523 37.3737C45.6192 58.3194 44.8692 70.3574 64.3362 92.8136C56.5242 92.5616 47.2004 89.1597 41.2783 79.0797C35.3562 68.9996 36.6163 57.7856 42.1603 49.5957Z" fill="#8D4BFA"/>
    <rect x="73.6616" y="62.0696" width="35.784" height="6.552" fill="#C3B3EE"/>
    <path d="M67.2842 65.2574L74.3358 57.4129V73.102L67.2842 65.2574Z" fill="#8D4BFA"/>
    <path d="M112.974 65.3248L102.396 53.5579V59.4414L107.942 65.3248L102.396 71.2083V77.0917L112.974 65.3248Z" fill="#8D4BFA"/>
</svg>
