<svg width="150" height="168" viewBox="0 0 150 168" fill="none" xmlns="http://www.w3.org/2000/svg">
    <path d="M103.658 159.267C105.639 158.781 118.644 155.502 118.54 151.19C118.52 150.348 117.987 148.892 114.536 147.173C112.241 145.102 109.945 143.032 107.65 140.961L105.824 139.32L105.373 138.936L103.598 137.337L103.078 136.865L101.252 135.224L100.733 134.752L98.9733 133.168L98.4703 132.711L96.7443 131.154L96.2078 130.669L94.3818 129.027C94.2058 128.964 94.1058 128.878 94.0483 128.743L91.9863 126.872L91.7528 126.673L87.2283 122.589C85.9968 121.534 84.7648 120.48 83.5333 119.426C80.1283 123.603 76.7238 127.78 73.3183 131.957L73.7543 132.357L75.7303 134.126L103.658 159.267Z" fill="#FF9292"/>
    <path d="M105.429 167.108C105.965 167.597 106.66 167.644 107.189 167.606C115.317 160.272 123.506 152.942 131.651 145.594C133.056 144.34 134.463 143.056 135.868 141.802C135.486 140.994 135.097 140.341 134.703 139.812C134.016 138.898 133.281 138.353 132.678 137.985C128.408 135.451 121.279 137.483 114.827 143.405C114.229 143.951 113.661 144.53 113.076 145.123C112.931 145.256 112.816 145.39 112.67 145.523C112.021 146.176 111.339 146.857 110.673 147.525C110.462 147.748 110.252 147.94 110.04 148.162C107.506 150.713 104.926 153.277 102.361 155.857C102.004 156.213 101.647 156.569 101.289 156.924C101.481 157.134 101.656 157.39 101.801 157.614C102.721 158.849 103.37 159.917 103.839 160.852C104.222 161.629 104.486 162.307 104.63 162.887C104.657 162.981 104.682 163.106 104.706 163.263C104.745 163.435 104.77 163.56 104.794 163.716C104.84 164.059 104.841 164.384 104.798 164.661C104.797 165.018 104.721 166.006 105.125 166.675C105.209 166.835 105.295 166.994 105.429 167.108Z" fill="#FF9292"/>
    <path d="M105.429 167.108C105.965 167.598 106.66 167.645 107.189 167.607C115.317 160.273 123.506 152.942 131.65 145.594C133.056 144.34 134.462 143.056 135.852 141.786C135.485 140.995 135.097 140.342 134.702 139.812C134.015 138.898 133.281 138.353 132.678 137.985C128.407 135.451 121.279 137.483 114.827 143.405C114.229 143.951 113.66 144.53 113.075 145.123C112.93 145.256 112.815 145.39 112.67 145.523C114.831 146.669 117.191 148.213 116.958 149.549C116.765 150.66 114.666 150.24 112.581 151.92C109.928 154.058 110.774 156.729 108.196 158.991C106.936 160.097 105.394 160.633 103.839 160.852C104.403 162.171 104.577 162.701 104.63 162.887C104.657 162.981 104.682 163.106 104.706 163.263C104.744 163.435 104.77 163.56 104.794 163.716C104.84 164.059 104.841 164.384 104.797 164.661C104.797 165.018 104.721 166.006 105.124 166.675C105.209 166.835 105.294 166.994 105.429 167.108Z" fill="#232996"/>
    <path d="M85.205 88.6111C81.86 90.6836 76.8065 93.1806 70.263 94.2396C65.062 95.0816 60.5095 94.7581 57.092 94.1966C55.3445 94.1481 53.7585 92.7751 53.1975 90.9106C52.5175 88.6511 53.454 86.0426 55.46 85.2056C64.78 83.3581 74.1 81.5101 83.42 79.6626C85.0645 81.6041 86.709 83.5451 88.354 85.4866C87.3045 86.5281 86.255 87.5696 85.205 88.6111Z" fill="#FF9292"/>
    <path d="M41.377 75.5631C42.8625 78.9206 45.445 80.8691 48.546 83.0486C49.035 83.3971 49.546 83.7366 50.0665 84.0981C50.546 84.4246 51.0345 84.7731 51.5365 85.0901C52.879 86.0296 54.3205 86.9546 55.854 87.9721C58.0765 89.4391 60.4525 90.8946 62.9645 92.4246C64.383 89.4581 65.7835 86.4466 67.2245 83.4706C64.996 81.6111 62.5725 79.7276 59.923 77.8066C59.4565 77.4486 58.977 77.1226 58.4885 76.7736C57.822 76.3151 57.124 75.8431 56.444 75.4166C50.9865 71.8266 45.768 69.0581 41.042 66.9011C40.9325 67.0791 40.828 67.3336 40.6975 67.6516C39.352 70.9826 40.894 74.4741 41.377 75.5631Z" fill="#FF9292"/>
    <path d="M50.0663 84.098C50.5458 84.4245 51.0343 84.773 51.5363 85.09C52.8788 86.0295 54.3203 86.9545 55.8538 87.972C57.2663 84.613 58.6053 81.205 59.9228 77.807C56.6563 79.887 53.3548 82.0085 50.0663 84.098Z" fill="#FC6565"/>
    <path d="M53.503 88.298C55.72 84.6785 57.937 81.059 60.154 77.4395C56.435 74.121 52.716 70.8025 48.9975 67.484C45.6745 67.9815 42.9175 70.2745 41.904 73.392C40.5065 77.6895 43.1835 81.213 43.4045 81.4935C46.7705 83.7615 50.1365 86.03 53.503 88.298Z" fill="#FFCA22"/>
    <path d="M23.2553 119.065C23.7658 119.357 25.5403 120.256 28.7973 119.211L29.5023 119.259L31.4713 119.381L38.4233 119.818L39.8088 119.915L43.9658 120.183C43.9658 120.158 55.5848 120.912 55.5848 120.912L56.0223 120.936L59.4498 121.179C59.5468 121.179 65.7938 121.568 65.7938 121.568C65.8183 121.568 67.0093 121.641 67.0093 121.641L68.0058 106.4L66.9363 106.352C66.9118 106.352 65.6483 106.255 65.6483 106.255L64.6033 106.182L63.2903 106.109L62.7313 106.06C62.7068 106.06 59.3768 105.841 59.3768 105.841L58.9393 105.817H58.6718L57.6993 105.744L56.8483 105.695L55.7788 105.622L52.0113 105.379L50.9903 105.331C50.9658 105.331 50.0178 105.258 50.0178 105.258L48.9728 105.185L47.8303 105.112L43.0903 104.82L42.2393 104.771L40.6593 104.674L37.2078 104.455L36.6243 104.407L35.5063 104.334L31.8118 104.067L30.0858 103.97L29.7938 103.945C29.4053 104.31 28.3353 105.306 26.6583 105.525C24.1058 105.866 22.3313 104.164 22.0883 103.945C18.8313 110.849 19.9983 117.193 23.2553 119.065Z" fill="#FF9292"/>
    <path d="M41.2651 108.19C39.9616 108.575 38.4711 108.881 36.8171 108.998C29.7571 109.498 24.2611 106.229 21.8311 104.539C24.7326 94.6815 29.1876 83.4416 36.1616 71.9006C37.9411 68.9561 39.7646 66.1905 41.6016 63.597C44.2291 64.6365 46.8566 65.6755 49.4836 66.715C46.7441 80.5396 44.0046 94.3645 41.2651 108.19Z" fill="#FF9292"/>
    <path d="M41.4858 63.765C42.7743 64.251 44.0868 64.786 45.3508 65.272C45.8368 65.4665 46.3473 65.6855 46.8338 65.8795C47.6603 66.1955 48.4863 66.5115 49.3128 66.852C49.3613 66.8765 49.4098 66.8765 49.4588 66.9005C49.4588 66.8275 49.4833 66.8035 49.4833 66.7305C49.6288 66.0985 49.7993 65.491 49.9693 64.883C50.1393 64.2265 50.2853 63.5945 50.4553 62.963C50.5283 62.671 50.6013 62.3555 50.6743 62.0635C50.8928 61.31 51.0628 60.605 51.2578 59.9005C51.3548 59.487 51.4278 59.098 51.5493 58.7335C51.6953 58.077 51.8898 57.421 52.0598 56.7405C51.8168 56.6435 51.5978 56.546 51.3548 56.4245C50.0908 55.8895 48.8028 55.379 47.5388 54.82C46.8823 55.7195 46.2508 56.619 45.6428 57.5425C45.1808 58.199 44.7678 58.8555 44.3058 59.536C44.2813 59.609 44.2328 59.682 44.1598 59.7545C43.6738 60.484 43.2118 61.213 42.7258 61.942C42.2883 62.5495 41.8993 63.157 41.4858 63.765Z" fill="#FF9292"/>
    <path d="M84.7181 90.6806C81.3731 92.7531 76.3196 95.2496 69.7761 96.3091C64.5756 97.1511 60.0231 96.8276 56.6051 96.2656C54.8576 96.2171 53.2721 94.8441 52.7111 92.9796C52.0311 90.7201 52.9676 88.1111 54.9736 87.2746C64.2936 85.4271 73.6136 83.5796 82.9336 81.7316L84.7181 90.6806Z" fill="#FF9292"/>
    <path d="M61.0478 114.465C61.0338 115.146 61.1263 115.83 61.3033 116.515C61.4608 117.157 61.7243 117.779 62.0528 118.382C62.1143 118.49 62.1763 118.576 62.2593 118.684C64.5243 122.394 69.5253 123.562 73.5753 121.282C76.5693 119.619 78.2303 116.523 78.1013 113.476L77.9958 112.409C77.9968 112.367 77.9978 112.324 77.9768 112.281C77.8233 111.469 77.5418 110.675 77.1313 109.922C76.9468 109.599 76.7403 109.275 76.5118 108.993C75.9103 108.214 75.1788 107.56 74.3588 107.054C74.1693 106.944 73.9588 106.832 73.7478 106.743C71.3033 105.522 68.2373 105.522 65.5873 107.021C64.6613 107.534 63.8813 108.178 63.2268 108.931C61.8328 110.5 61.0678 112.464 61.0478 114.465Z" fill="#FF9292"/>
    <path d="M66.7196 121.491C66.7056 122.172 66.7981 122.856 66.9756 123.541C67.1326 124.183 67.3966 124.806 67.7251 125.409C67.7866 125.516 67.8486 125.603 67.9316 125.711C70.1971 129.42 75.1976 130.588 79.2481 128.308C82.2421 126.645 83.9031 123.55 83.7746 120.502L83.6686 119.436C83.6696 119.393 83.6706 119.351 83.6501 119.307C83.4966 118.495 83.2151 117.701 82.8046 116.948C82.6201 116.624 82.4136 116.301 82.1851 116.019C81.5836 115.24 80.8521 114.586 80.0321 114.08C79.8426 113.969 79.6321 113.858 79.4211 113.769C76.9766 112.547 73.9106 112.548 71.2606 114.047C70.3346 114.56 69.5546 115.204 68.9001 115.957C67.5041 117.526 66.7396 119.49 66.7196 121.491Z" fill="#FF9292"/>
    <path d="M66.131 158.136C67.922 159.113 79.7365 165.461 82.5675 162.207C83.12 161.572 83.7085 160.137 82.3195 156.541C82.0205 153.464 81.722 150.387 81.423 147.311L81.182 144.867L81.108 144.28L80.875 141.902L80.8095 141.204L80.568 138.76L80.502 138.062L80.272 135.705L80.209 135.028L79.9845 132.715L79.916 131.995L79.6745 129.551C79.5875 129.386 79.571 129.255 79.62 129.117L79.3595 126.344L79.321 126.04L78.734 119.973C78.5355 118.364 78.337 116.755 78.1385 115.146C72.8075 115.934 67.4765 116.722 62.1455 117.51L62.1975 118.1L62.4635 120.739L66.131 158.136Z" fill="#FF9292"/>
    <path d="M62.1514 165.121C62.2169 165.843 62.6989 166.347 63.1149 166.675C74.0619 166.741 85.0524 166.85 96.0219 166.916C97.9049 166.938 99.8094 166.938 101.692 166.96C101.955 166.106 102.108 165.361 102.174 164.705C102.284 163.566 102.109 162.669 101.911 161.99C100.466 157.239 93.8324 153.933 85.0749 153.955C84.2649 153.955 83.4549 153.998 82.6229 154.042C82.4259 154.042 82.2504 154.064 82.0534 154.064C81.1339 154.108 80.1704 154.152 79.2289 154.196C78.9224 154.217 78.6379 154.217 78.3314 154.239C74.7409 154.414 71.1064 154.568 67.4719 154.743C66.9684 154.765 66.4649 154.786 65.9609 154.808C65.9609 155.093 65.9174 155.399 65.8734 155.662C65.7204 157.195 65.4794 158.421 65.1949 159.428C64.9539 160.26 64.6914 160.939 64.4069 161.464C64.3634 161.552 64.2974 161.661 64.2099 161.793C64.1219 161.946 64.0564 162.055 63.9689 162.187C63.7719 162.471 63.5529 162.712 63.3339 162.887C63.0929 163.15 62.3704 163.829 62.2169 164.595C62.1734 164.77 62.1294 164.946 62.1514 165.121Z" fill="#FF9292"/>
    <path d="M62.1514 165.121C62.2169 165.843 62.6989 166.347 63.1149 166.675C74.0619 166.741 85.0524 166.85 96.0219 166.916C97.9049 166.938 99.8094 166.938 101.692 166.938C101.955 166.106 102.108 165.361 102.174 164.705C102.284 163.566 102.109 162.669 101.911 161.99C100.466 157.239 93.8324 153.933 85.0749 153.955C84.2649 153.955 83.4549 153.998 82.6229 154.042C82.4259 154.042 82.2504 154.064 82.0534 154.064C82.8764 156.368 83.5779 159.099 82.5054 159.929C81.6134 160.619 80.3469 158.893 77.6744 158.728C74.2729 158.518 73.0964 161.06 69.6679 160.993C67.9914 160.959 66.4919 160.316 65.1949 159.429C64.7224 160.783 64.4934 161.292 64.4069 161.465C64.3634 161.552 64.2974 161.662 64.2099 161.793C64.1219 161.946 64.0564 162.056 63.9689 162.187C63.7719 162.472 63.5529 162.713 63.3339 162.888C63.0929 163.151 62.3704 163.829 62.2169 164.596C62.1734 164.77 62.1294 164.946 62.1514 165.121Z" fill="#232996"/>
    <path d="M47.7818 56.2295C48.6813 58.466 49.5563 60.7265 50.4558 62.9625C50.5288 62.6705 50.6018 62.355 50.6748 62.063C50.8933 61.3095 51.0633 60.6045 51.2583 59.9C51.3553 59.4865 51.4283 59.0975 51.5498 58.733C51.6958 58.0765 51.8903 57.4205 52.0603 56.74C51.8173 56.643 51.5983 56.5455 51.3553 56.424C50.1638 56.3755 48.9728 56.3025 47.7818 56.2295Z" fill="#FC6565"/>
    <path d="M47.3464 52.2496C46.8909 56.2826 49.0739 59.8476 52.1749 60.1751C54.7979 60.4671 57.2539 58.3836 58.2184 55.3291C58.3999 54.7616 58.5449 54.1506 58.6114 53.5146C58.6144 53.4751 58.6639 52.7976 58.6639 52.7976C58.7079 51.0981 58.3419 49.5286 57.6124 48.2736C56.7424 46.7476 55.3764 45.7061 53.7669 45.5281L53.4284 45.5031C50.7314 45.4061 48.2714 47.8101 47.5259 51.1611C47.4399 51.5151 47.3939 51.8726 47.3464 52.2496Z" fill="#FF9292"/>
    <path d="M56.4044 57.6136C56.6694 57.4381 56.9344 57.2626 57.1989 57.0871C57.8799 56.5011 58.5604 55.9156 59.2414 55.3301C59.2744 55.2166 59.3009 55.0551 59.2229 54.9201C59.0864 54.6836 58.7114 54.6696 58.5604 54.6601C58.1419 54.6336 57.5164 54.5171 56.5769 54.1316C56.5194 55.2921 56.4619 56.4531 56.4044 57.6136Z" fill="#FF9292"/>
    <path d="M50.6576 53.7126C50.6301 54.5161 51.2591 55.1891 52.0626 55.2166C52.8656 55.2441 53.5391 54.6156 53.5666 53.8121C53.5941 53.0086 52.9651 52.3356 52.1621 52.3076C51.3586 52.2801 50.6851 52.9091 50.6576 53.7126Z" fill="#FC6565"/>
    <path d="M54.4489 52.6927C54.3844 53.2557 55.2364 53.7367 55.8234 53.9132C56.1884 54.0327 56.5719 54.0777 56.8874 54.0792C56.9679 54.0732 57.0239 54.0612 57.0794 54.0492C57.3524 54.0137 57.5879 53.9157 57.6814 53.7552C57.8874 53.3597 57.5574 52.5907 56.9344 52.1417C56.8974 52.0797 56.8729 52.0732 56.8294 52.0357C56.6689 51.9417 56.4774 51.8667 56.2544 51.8102C56.1804 51.7912 56.1244 51.8032 56.0754 51.7907C55.9764 51.7657 55.8959 51.7712 55.8154 51.7772C55.1409 51.8417 54.4819 52.2537 54.4489 52.6927Z" fill="#F4F4F7"/>
    <path d="M55.8056 52.4336C55.6731 52.9531 55.7016 53.4606 55.8226 53.9131C56.1876 54.0326 56.5711 54.0776 56.8866 54.0791C56.9671 54.0731 57.0231 54.0611 57.0786 54.0491C57.3516 54.0136 57.5871 53.9156 57.6806 53.7551C57.8866 53.3596 57.5566 52.5906 56.9336 52.1416C56.8966 52.0796 56.8721 52.0731 56.8286 52.0356C56.6681 51.9416 56.4766 51.8666 56.2536 51.8101C56.1796 51.7911 56.1236 51.8031 56.0746 51.7906C55.9506 51.9696 55.8626 52.2106 55.8056 52.4336Z" fill="#232996"/>
    <path d="M53.823 57.0726C53.602 57.1891 53.616 58.1876 54.2135 58.5356C54.722 58.8321 55.474 58.5541 55.513 58.2996C55.5315 58.1801 55.3845 58.1171 54.4855 57.4691C53.983 57.1066 53.8985 57.0326 53.823 57.0726Z" fill="#F4F4F7"/>
    <path d="M129.76 167.286C129.604 167.286 129.466 167.175 129.438 167.017L117.251 98.8441C117.219 98.6666 117.337 98.4971 117.515 98.4651C117.688 98.4291 117.862 98.5506 117.894 98.7291L130.081 166.902C130.113 167.079 129.994 167.249 129.817 167.281C129.798 167.285 129.779 167.286 129.76 167.286Z" fill="#232996"/>
    <path d="M56.1771 167.286C55.9421 167.249 55.8235 167.079 55.8555 166.902L68.0416 98.7296C68.0721 98.5511 68.2415 98.4301 68.4205 98.4656C68.598 98.4976 68.7165 98.6671 68.6845 98.8446L56.498 167.017C56.4705 167.175 56.3326 167.286 56.1771 167.286Z" fill="#232996"/>
    <path d="M57.0665 100.717H130.445C131.8 100.717 132.909 99.6085 132.909 98.2535C132.909 96.899 131.8 95.7905 130.445 95.7905H57.0665C55.712 95.7905 54.6035 96.899 54.6035 98.2535C54.6035 99.6085 55.712 100.717 57.0665 100.717Z" fill="#84DBEF"/>
    <path d="M104.142 95.4705L104.433 95.5505C104.92 95.685 105.429 95.3965 105.563 94.9095L114.954 60.875C115.088 60.388 114.8 59.88 114.313 59.7455L114.021 59.6655C113.534 59.531 113.026 59.8195 112.892 60.3065L103.501 94.3405C103.366 94.8275 103.655 95.336 104.142 95.4705Z" fill="#232996"/>
    <path d="M68.6815 95.7905H103.556C104.126 95.7905 104.593 95.3235 104.593 94.7535C104.593 94.183 104.126 93.7165 103.556 93.7165H68.6815C68.111 93.7165 67.6445 94.183 67.6445 94.7535C67.644 95.324 68.111 95.7905 68.6815 95.7905Z" fill="#232996"/>
    <path d="M84.7181 90.6806C85.3356 90.9541 85.9761 91.2606 86.6336 91.6056C87.9376 92.2896 89.0921 93.0106 90.1011 93.7161C90.7596 93.8001 91.4176 93.8846 92.0761 93.9686C92.5896 94.2916 93.2956 91.1251 91.3161 86.2081C91.0201 85.8631 90.6921 85.5191 90.3286 85.1826C87.8556 82.8921 84.9421 82.0596 82.9331 81.7316C83.5281 84.7146 84.1231 87.6976 84.7181 90.6806Z" fill="#FF9292"/>
    <path d="M84.2315 82.9691H87.2055C87.6045 83.0886 88.9305 83.4316 90.253 82.7521C90.4635 82.6441 91.508 82.1071 91.4305 81.6506C91.3645 81.2636 90.4805 80.8691 86.9485 80.8146C85.57 81.1281 84.1915 81.4416 82.813 81.7551C83.286 82.1601 83.759 82.5651 84.2315 82.9691Z" fill="#FF9292"/>
    <path d="M55.5845 120.912L56.022 120.937L59.4495 121.18C59.474 116.075 59.425 110.971 59.3765 105.842C58.55 107.592 57.6995 109.342 56.8725 111.092C56.4595 114.373 55.9975 117.631 55.5845 120.912Z" fill="#FC6565"/>
    <path d="M22.04 120.049C33.5185 120.556 44.9975 121.062 56.476 121.568C57.4885 116.065 58.5016 110.562 59.5146 105.059C49.4036 104.686 39.2921 104.314 29.1806 103.941C28.6336 103.779 23.871 102.441 20.864 105.013C17.5385 107.858 17.2205 114.753 22.04 120.049Z" fill="#FF2468"/>
    <path d="M17.981 104.14C20.5335 105.015 23.6205 105.817 27.218 106.23C30.0135 106.57 32.6385 106.595 35.045 106.449C38.837 106.254 42.07 105.574 44.525 104.917C45.57 96.8956 46.6155 88.8986 47.6365 80.8771C48.2685 76.1616 48.876 71.4216 49.484 66.7061C46.859 65.6851 44.2335 64.6396 41.6085 63.5946C40.223 64.8101 38.886 66.0986 37.525 67.4841C26.148 79.2486 20.703 93.0311 17.981 104.14Z" fill="#FFCA22"/>
    <path d="M48.8851 51.9986C49.3676 52.2036 50.0351 52.3861 50.6586 52.1361C51.1756 51.9286 51.4156 51.5231 51.6591 51.2266C52.1231 50.6611 52.9826 50.0271 54.7191 49.7681C55.1751 50.0811 55.9396 50.5241 56.9781 50.7691C58.1151 51.0376 59.0736 50.9501 59.6376 50.8551C61.1641 49.1886 61.2961 48.4606 61.0961 48.1096C60.9336 47.8246 60.5771 47.8311 60.0951 47.3946C59.6196 46.9641 59.3921 46.4386 59.2741 46.0631C59.0871 46.1626 58.8001 46.2881 58.4366 46.3366C57.2891 46.4881 56.4626 45.7231 55.7486 45.3356C54.0601 44.4191 51.7516 44.9371 50.4011 45.7071C48.0171 47.0666 47.5281 49.8316 47.4556 50.2826C47.1661 53.2256 47.1771 54.7301 47.4896 54.7951C47.7486 54.8496 48.2136 53.9171 48.8851 51.9986Z" fill="#232996"/>
    <path d="M50.6542 52.0276C50.6067 52.8886 49.9372 53.5511 49.1597 53.5076C48.3822 53.4646 47.7902 52.7316 47.8382 51.8711C47.8862 51.0106 48.5552 50.3476 49.3327 50.3911C50.1102 50.4341 50.7017 51.1671 50.6542 52.0276Z" fill="#FF9292"/>
    <path d="M61.3108 86.4575C61.2048 86.4575 61.1003 86.405 61.0378 86.3105L57.6448 81.1545C57.5453 81.004 57.5873 80.801 57.7378 80.7015C57.8898 80.6045 58.0913 80.6455 58.1908 80.795L61.5838 85.951C61.6833 86.1015 61.6413 86.3045 61.4908 86.404C61.4348 86.4395 61.3733 86.4575 61.3108 86.4575Z" fill="#F74F4F"/>
    <path d="M61.2753 86.2305C61.1208 86.2305 60.9843 86.121 60.9538 85.964C60.9208 85.788 61.0378 85.617 61.2153 85.5825L84.1663 81.249C84.3538 81.2085 84.5133 81.3345 84.5478 81.5105C84.5808 81.6865 84.4638 81.8575 84.2863 81.892L61.3353 86.2255C61.3148 86.2295 61.2943 86.2305 61.2753 86.2305Z" fill="#F74F4F"/>
    <path d="M41.6801 71.835C41.8016 75.4565 43.4061 78.228 45.3991 81.388C45.7151 81.8985 46.0556 82.409 46.3956 82.9435C46.7116 83.4295 47.0276 83.94 47.3676 84.4265C47.9511 85.3505 48.5586 86.2495 49.2151 87.222C49.5551 87.7325 49.8956 88.2185 50.2356 88.7535C51.7186 90.9655 53.3471 93.226 55.0731 95.608C57.5281 93.4205 59.9831 91.184 62.4626 88.9965C61.1256 86.42 59.6186 83.7705 57.9171 80.975C57.6256 80.44 57.3096 79.954 56.9936 79.4435C56.5561 78.763 56.0941 78.058 55.6321 77.4015C53.1531 73.731 50.6491 70.4495 48.1696 67.533C46.9786 67.63 44.7666 68.068 43.0166 69.915C42.4581 70.498 42.0206 71.13 41.6801 71.835Z" fill="#FF9292"/>
    <path d="M46.396 82.9436C46.712 83.4296 47.028 83.94 47.368 84.4265C48.243 85.812 49.2155 87.222 50.236 88.7535C52.837 86.201 55.389 83.576 57.9175 80.951C54.101 81.6065 50.2365 82.2871 46.396 82.9436Z" fill="#FC6565"/>
    <path d="M41.2672 77.9605C43.4792 81.3635 45.7157 84.7425 47.9517 88.1455C48.3652 87.8535 48.8027 87.538 49.2157 87.2215C52.0837 85.155 54.9522 83.0895 57.8447 81.023C58.0392 80.877 58.1607 80.8045 58.2822 80.707C55.1952 76.283 52.0837 71.8835 48.9967 67.4835C48.8752 67.4835 48.5832 67.4835 48.1702 67.532C46.9792 67.629 44.7672 68.067 43.0172 69.914C42.4582 70.4975 42.0207 71.1295 41.6802 71.8345C40.7812 73.6825 40.6112 75.87 41.2672 77.9605Z" fill="#FFCA22"/>
    <path d="M47.9278 163.947C47.9278 165.611 49.2768 166.96 50.9408 166.96C52.6048 166.96 53.9538 165.611 53.9538 163.947C53.9538 162.283 52.6048 160.934 50.9408 160.934C49.2763 160.934 47.9278 162.283 47.9278 163.947Z" fill="#232996"/>
    <path d="M19.2753 125.821H51.1973C52.9718 125.821 54.4238 124.369 54.4238 122.595C54.4238 120.82 52.9718 119.368 51.1973 119.368H19.2753C17.5008 119.368 16.0488 120.82 16.0488 122.594C16.0488 124.369 17.5008 125.821 19.2753 125.821Z" fill="#232996"/>
    <path d="M33.9393 162.587H36.5323L36.5323 124.455H33.9393L33.9393 162.587Z" fill="#232996"/>
    <path d="M50.7027 166.054C50.4627 166.013 50.3467 165.841 50.3822 165.663C51.3362 160.83 49.3232 156.044 45.3742 153.754C41.0537 151.251 36.5062 152.989 35.6382 153.366C35.4727 153.437 35.2822 153.362 35.2097 153.195C35.1382 153.031 35.2147 152.838 35.3807 152.767C36.2992 152.369 41.1132 150.529 45.7007 153.19C49.8927 155.618 52.0307 160.682 51.0227 165.791C50.9922 165.946 50.8557 166.054 50.7027 166.054Z" fill="#232996"/>
    <path d="M32.4966 163.946C32.4966 165.61 33.8456 166.959 35.5096 166.959C37.1736 166.959 38.5226 165.61 38.5226 163.946C38.5226 162.282 37.1736 160.933 35.5096 160.933C33.8456 160.933 32.4966 162.282 32.4966 163.946Z" fill="#232996"/>
    <path d="M20.0428 166.054C19.8898 166.054 19.7533 165.946 19.7223 165.791C18.7148 160.682 20.8528 155.617 25.0443 153.19C29.6338 150.529 34.4468 152.37 35.3643 152.766C35.5298 152.838 35.6063 153.03 35.5353 153.195C35.4623 153.361 35.2683 153.433 35.1063 153.366C34.2388 152.995 29.6938 151.255 25.3708 153.755C21.4213 156.043 19.4083 160.829 20.3628 165.663C20.3983 165.84 20.2823 166.012 20.1063 166.047C20.0848 166.051 20.0628 166.054 20.0428 166.054Z" fill="#232996"/>
    <path d="M22.8185 163.946C22.8185 165.61 21.4695 166.959 19.8055 166.959C18.1415 166.959 16.7925 165.61 16.7925 163.946C16.7925 162.282 18.1415 160.933 19.8055 160.933C21.4695 160.933 22.8185 162.282 22.8185 163.946Z" fill="#232996"/>
    <path d="M80.5385 138.781C80.3715 138.781 80.2295 138.655 80.2135 138.486L77.777 113.509C77.7595 113.329 77.8905 113.17 78.0705 113.152C78.2635 113.134 78.41 113.267 78.428 113.445L80.8645 138.422C80.8825 138.602 80.751 138.762 80.571 138.779C80.559 138.781 80.5485 138.781 80.5385 138.781Z" fill="#F74F4F"/>
    <path d="M70.5236 29.6056C70.5236 30.2961 71.0101 30.9861 71.8926 30.9861C73.2281 30.9861 73.7821 32.6836 72.6961 33.4641C72.2886 33.7581 72.1191 34.1546 72.1191 34.5506C72.1191 35.3996 72.9111 36.2141 73.9296 35.8746C74.0766 35.8296 74.2236 35.8066 74.3711 35.8066C75.4236 35.8066 76.1591 37.0401 75.4571 37.9901C75.2651 38.2506 75.1856 38.5331 75.1856 38.7936C75.1856 39.8006 76.3736 40.6381 77.3691 39.9026C77.6296 39.7101 77.9011 39.6311 78.1726 39.6311C79.0326 39.6311 79.8021 40.4801 79.4856 41.4306C79.4291 41.5891 79.4061 41.7476 79.4061 41.8946C79.4061 43.1166 81.0806 43.7956 81.8956 42.6641C82.1786 42.2681 82.5856 42.0981 82.9931 42.0981C83.6946 42.0981 84.3851 42.6301 84.3736 43.4671C84.3736 44.3496 85.0636 44.8476 85.7656 44.8476C86.3086 44.8476 86.8401 44.5536 87.0551 43.8971C87.2591 43.2636 87.8131 42.9466 88.3566 42.9466C88.9001 42.9466 89.4541 43.2636 89.6581 43.8971C89.8616 44.5536 90.4046 44.8476 90.9481 44.8476C91.6381 44.8476 92.3396 44.3496 92.3396 43.4671C92.3396 42.1431 94.0371 41.5886 94.8176 42.6636C95.1116 43.0711 95.5076 43.2406 95.9041 43.2406C96.7416 43.2406 97.5561 42.4486 97.2281 41.4301C97.1831 41.2831 97.1491 41.1246 97.1491 40.9886C97.1491 39.9476 98.3826 39.2006 99.3331 39.9021C99.5931 40.0946 99.8761 40.1851 100.148 40.1851C101.155 40.1851 101.981 38.9856 101.257 37.9896C101.064 37.7296 100.985 37.4466 100.985 37.1861C100.985 36.3261 101.823 35.5681 102.784 35.8736C102.943 35.9301 103.101 35.9526 103.248 35.9526C104.47 35.9526 105.149 34.2781 104.018 33.4631C103.622 33.1801 103.441 32.7616 103.441 32.3656C103.441 31.6641 103.973 30.9741 104.821 30.9851C105.704 30.9851 106.191 30.2951 106.191 29.6046C106.191 29.0616 105.897 28.5181 105.24 28.3146C104.606 28.1111 104.29 27.5566 104.29 27.0021C104.29 26.4591 104.607 25.9046 105.24 25.7006C105.897 25.4971 106.191 24.9541 106.191 24.4106C106.191 23.7206 105.704 23.0186 104.821 23.0301C103.973 23.0301 103.441 22.3401 103.441 21.6496C103.441 21.2421 103.622 20.8351 104.018 20.5521C104.425 20.2581 104.595 19.8621 104.595 19.4656C104.595 18.6171 103.803 17.8026 102.784 18.1306C102.626 18.1756 102.479 18.2096 102.332 18.2096C101.291 18.2096 100.555 16.9761 101.257 16.0256C101.449 15.7651 101.528 15.4826 101.528 15.2221C101.528 14.2151 100.34 13.3776 99.3331 14.1136C99.0731 14.2946 98.8011 14.3851 98.5296 14.3851C97.6696 14.3851 96.9116 13.5366 97.2281 12.5746C97.2846 12.4161 97.3071 12.2581 97.3071 12.1221C97.3071 10.9001 95.6326 10.2096 94.8176 11.3526C94.5346 11.7486 94.1276 11.9181 93.7201 11.9181C93.0186 11.9181 92.3286 11.3866 92.3396 10.5376C92.3396 9.65508 91.6381 9.16808 90.9481 9.16808C90.4046 9.16808 89.8616 9.46258 89.6581 10.1186C89.4541 10.7521 88.9001 11.0691 88.3566 11.0691C87.8131 11.0691 87.2591 10.7521 87.0551 10.1186C86.5686 8.62508 84.3736 8.97558 84.3736 10.5371C84.3736 11.8726 82.6766 12.4266 81.8956 11.3521C81.6016 10.9446 81.2056 10.7751 80.8091 10.7751C79.9716 10.7751 79.1571 11.5671 79.4851 12.5741C79.5301 12.7211 79.5526 12.8796 79.5526 13.0151C79.5526 14.0676 78.3191 14.8031 77.3686 14.1131C77.1086 13.9211 76.8256 13.8301 76.5651 13.8301C75.5581 13.8301 74.7321 15.0296 75.4561 16.0256C75.6486 16.2856 75.7276 16.5686 75.7276 16.8291C75.7276 17.6891 74.8901 18.4471 73.9286 18.1306C73.7701 18.0741 73.6121 18.0511 73.4761 18.0511C72.2426 18.0511 71.5636 19.7371 72.6951 20.5516C73.0911 20.8346 73.2721 21.2416 73.2721 21.6491C73.2721 22.3396 72.7401 23.0296 71.8916 23.0296C70.3301 23.0296 69.9791 25.2246 71.4731 25.6996C72.1066 25.9036 72.4236 26.4576 72.4236 27.0011C72.4236 27.5556 72.1066 28.1101 71.4731 28.3136C70.8181 28.5196 70.5236 29.0626 70.5236 29.6056ZM83.2651 27.0031C83.2651 24.1971 85.5391 21.9111 88.3571 21.9111C91.1751 21.9111 93.4486 24.1966 93.4486 27.0031C93.4486 29.8206 91.1746 32.0951 88.3571 32.0951C85.5396 32.0951 83.2651 29.8206 83.2651 27.0031Z" fill="#84DBEF"/>
    <path d="M92.035 43.1031C91.2735 43.1031 90.6585 42.6516 90.433 41.9231C90.262 41.3926 89.7925 41.2026 89.443 41.2026C89.0935 41.2026 88.6255 41.3926 88.453 41.9261C88.2155 42.6531 87.602 43.1036 86.852 43.1036C86.019 43.1036 85.134 42.5051 85.134 41.3966C85.139 41.0381 84.9835 40.8046 84.853 40.6721C84.653 40.4691 84.371 40.3531 84.08 40.3531C83.84 40.3531 83.502 40.4271 83.247 40.7831C82.803 41.4031 82.081 41.6476 81.364 41.4121C80.647 41.1811 80.166 40.5436 80.166 39.8241C80.166 39.6261 80.199 39.4336 80.2645 39.2501C80.369 38.9361 80.3205 38.6106 80.127 38.3416C79.79 37.8746 79.1245 37.7431 78.6495 38.0956C78.1175 38.4881 77.485 38.5511 76.9135 38.2601C76.3255 37.9641 75.9455 37.3611 75.9455 36.7231C75.9455 36.3681 76.0615 36.0241 76.281 35.7256C76.5245 35.3956 76.5615 35.0026 76.382 34.6466C76.146 34.1771 75.601 33.9706 75.114 34.1161C74.5845 34.2961 74.045 34.2231 73.605 33.9046C73.157 33.5816 72.879 33.0356 72.879 32.4806C72.879 31.9411 73.133 31.4616 73.592 31.1286C74.05 30.8006 74.092 30.3111 73.9795 29.9626C73.8675 29.6146 73.55 29.2431 72.991 29.2431C71.8785 29.2431 71.2845 28.3641 71.2845 27.5361C71.2845 26.7731 71.736 26.1596 72.4645 25.9341C72.9955 25.7631 73.185 25.3051 73.185 24.9326C73.185 24.5831 72.995 24.1151 72.462 23.9426C71.5065 23.6391 71.19 22.7831 71.301 22.0701C71.431 21.2246 72.1175 20.6351 72.9685 20.6351C73.6395 20.6351 74.0335 20.0991 74.0335 19.5811C74.0335 19.2471 73.877 18.9511 73.5935 18.7481C72.9735 18.3031 72.734 17.5796 72.9645 16.8601C73.2565 15.9546 74.241 15.4366 75.1255 15.7541C75.448 15.8601 75.7785 15.8131 76.044 15.6186C76.318 15.4211 76.489 15.0921 76.489 14.7601C76.489 14.6096 76.453 14.3826 76.281 14.1506C75.8945 13.6201 75.837 12.9656 76.1255 12.3966C76.5875 11.4926 77.785 11.1376 78.65 11.7821C78.9805 12.0206 79.372 12.0536 79.7305 11.8726C80.09 11.6886 80.3135 11.3341 80.3135 10.9476C80.3135 10.8391 80.2945 10.7126 80.26 10.6016C80.088 10.0726 80.1655 9.53757 80.482 9.10307C80.806 8.65657 81.348 8.37957 81.8965 8.37957C82.436 8.37957 82.9155 8.63357 83.2475 9.09257C83.5755 9.54657 84.07 9.58357 84.412 9.47157C84.7615 9.35807 85.134 9.03907 85.134 8.48057C85.134 7.46757 85.853 6.90507 86.5665 6.79157C87.2835 6.68207 88.1405 6.99307 88.452 7.95007C88.6255 8.48457 89.0935 8.67457 89.443 8.67457C89.7925 8.67457 90.262 8.48607 90.433 7.95157C90.659 7.22607 91.2725 6.77407 92.035 6.77407C92.868 6.77407 93.753 7.36857 93.753 8.46957C93.748 8.83557 93.905 9.07157 94.0375 9.20557C94.2365 9.40707 94.517 9.52307 94.8065 9.52307C95.0465 9.52307 95.3845 9.44907 95.6385 9.09457C96.0825 8.47307 96.8005 8.22707 97.516 8.45907C98.237 8.68857 98.7199 9.33057 98.7199 10.0536C98.7199 10.2411 98.686 10.4351 98.6215 10.6161C98.5145 10.9386 98.563 11.2716 98.761 11.5436C99.0835 11.9916 99.701 12.1446 100.232 11.7771C100.765 11.3841 101.401 11.3281 101.978 11.6206C102.562 11.9181 102.94 12.5201 102.94 13.1541C102.94 13.5101 102.823 13.8556 102.604 14.1516C102.361 14.4821 102.323 14.8761 102.505 15.2336C102.684 15.5921 103.035 15.8151 103.417 15.8151C103.511 15.8151 103.618 15.7961 103.779 15.7491C104.309 15.5791 104.847 15.6556 105.283 15.9746C105.73 16.2996 106.007 16.8446 106.007 17.3981C106.007 17.9376 105.754 18.4171 105.295 18.7491C105.009 18.9531 104.852 19.2476 104.852 19.5821C104.852 20.1001 105.247 20.6361 105.907 20.6361C106.365 20.6001 106.782 20.7891 107.095 21.0976C107.417 21.4166 107.602 21.8696 107.602 22.3426C107.602 23.1056 107.149 23.7191 106.422 23.9451C105.892 24.1161 105.702 24.5841 105.702 24.9336C105.702 25.3061 105.892 25.7641 106.425 25.9351C107.151 26.1606 107.602 26.7756 107.602 27.5371C107.602 28.3651 107.008 29.2441 105.907 29.2441C105.564 29.2671 105.303 29.3971 105.169 29.5286C104.968 29.7276 104.852 30.0081 104.852 30.2976C104.852 30.6266 105.012 30.9291 105.292 31.1281C105.913 31.5761 106.153 32.2976 105.922 33.0146C105.691 33.7306 105.053 34.2116 104.334 34.2116C104.136 34.2116 103.943 34.1786 103.76 34.1131C103.445 34.0111 103.112 34.0631 102.841 34.2586C102.563 34.4626 102.397 34.7831 102.397 35.1181C102.397 35.2676 102.433 35.4946 102.604 35.7266C102.99 36.2586 103.048 36.9141 102.759 37.4821C102.298 38.3891 101.091 38.7336 100.225 38.0981C99.8945 37.8546 99.504 37.8226 99.1485 37.9986C98.7925 38.1781 98.5615 38.5396 98.5615 38.9196C98.5615 39.0091 98.5845 39.1316 98.6255 39.2641C98.799 39.8026 98.72 40.3406 98.4025 40.7771C98.0785 41.2221 97.5375 41.4981 96.99 41.4981C96.4505 41.4981 95.971 41.2456 95.639 40.7866C95.31 40.3336 94.819 40.2891 94.4705 40.4076C94.1235 40.5201 93.7525 40.8361 93.7525 41.3871C93.753 42.5041 92.868 43.1031 92.035 43.1031ZM89.443 40.5486C90.193 40.5486 90.826 41.0106 91.0555 41.7261C91.197 42.1801 91.563 42.4496 92.035 42.4496C92.5645 42.4496 93.1 42.0871 93.1 41.3956C93.1 40.6421 93.5595 40.0126 94.2694 39.7831C94.9839 39.5461 95.7275 39.7946 96.1675 40.4006C96.433 40.7651 96.7605 40.8421 96.99 40.8421C97.332 40.8421 97.67 40.6686 97.874 40.3906C98.0095 40.2031 98.142 39.8906 98.003 39.4581C97.9595 39.3191 97.9085 39.1151 97.9085 38.9171C97.9085 38.2841 98.2709 37.7076 98.8534 37.4131C99.4299 37.1221 100.087 37.1796 100.611 37.5686C101.165 37.9741 101.891 37.7521 102.176 37.1821C102.281 36.9766 102.407 36.5646 102.077 36.1106C101.86 35.8146 101.744 35.4701 101.744 35.1156C101.744 34.5736 102.009 34.0546 102.454 33.7291C102.89 33.4116 103.442 33.3246 103.968 33.4916C104.597 33.7126 105.151 33.2726 105.3 32.8121C105.443 32.3671 105.298 31.9356 104.911 31.6576C104.458 31.3351 104.198 30.8386 104.198 30.2951C104.198 29.8321 104.384 29.3816 104.711 29.0606C105.026 28.7491 105.469 28.5716 105.91 28.5886C106.59 28.5886 106.948 28.0581 106.948 27.5351C106.948 27.0631 106.679 26.6971 106.228 26.5556C105.51 26.3261 105.048 25.6891 105.048 24.9316C105.048 24.1831 105.51 23.5501 106.225 23.3191C106.679 23.1786 106.948 22.8141 106.948 22.3406C106.948 22.0406 106.835 21.7566 106.636 21.5601C106.453 21.3816 106.208 21.2871 105.926 21.2871C104.837 21.2871 104.198 20.4196 104.198 19.5801C104.198 19.0381 104.458 18.5406 104.912 18.2166C105.275 17.9536 105.352 17.6261 105.352 17.3961C105.352 17.0476 105.177 16.7051 104.896 16.5006C104.711 16.3641 104.4 16.2341 103.967 16.3716C103.801 16.4201 103.615 16.4661 103.415 16.4661C102.785 16.4661 102.212 16.1066 101.92 15.5261C101.628 14.9496 101.686 14.2901 102.077 13.7621C102.213 13.5786 102.285 13.3676 102.285 13.1521C102.285 12.7666 102.041 12.3851 101.68 12.2016C101.473 12.0946 101.066 11.9721 100.608 12.3076C99.778 12.8876 98.76 12.6581 98.2295 11.9251C97.911 11.4851 97.8275 10.9301 98.0025 10.4031C98.0435 10.2871 98.065 10.1646 98.065 10.0526C98.065 9.54607 97.689 9.19907 97.315 9.07907C96.866 8.93507 96.4425 9.08557 96.167 9.47307C95.843 9.92557 95.3595 10.1746 94.8045 10.1746C94.3415 10.1746 93.891 9.98857 93.5695 9.66207C93.2595 9.34707 93.091 8.92207 93.0975 8.46407C93.0975 7.78407 92.5614 7.42557 92.0324 7.42557C91.559 7.42557 91.193 7.69457 91.053 8.14657C90.8235 8.86457 90.1905 9.32657 89.4405 9.32657C88.6915 9.32657 88.059 8.86507 87.828 8.14957C87.624 7.51907 87.078 7.37507 86.666 7.43657C86.259 7.50057 85.7845 7.81057 85.7845 8.46857C85.7845 9.22857 85.324 9.86157 84.612 10.0926C83.895 10.3251 83.154 10.0811 82.7155 9.47507C82.4515 9.10857 82.122 9.03207 81.894 9.03207C81.5505 9.03207 81.2105 9.20607 81.0075 9.48657C80.8735 9.67157 80.7425 9.98007 80.88 10.4051C80.935 10.5836 80.964 10.7751 80.964 10.9476C80.964 11.5816 80.6045 12.1581 80.024 12.4541C79.451 12.7461 78.7905 12.6926 78.2625 12.3086C77.701 11.8961 76.987 12.1376 76.706 12.6936C76.601 12.8991 76.475 13.3111 76.8055 13.7641C77.0235 14.0586 77.14 14.4046 77.14 14.7601C77.14 15.3046 76.872 15.8241 76.424 16.1481C75.988 16.4621 75.434 16.5446 74.9125 16.3711C74.257 16.1391 73.73 16.6046 73.5845 17.0601C73.4405 17.5066 73.5845 17.9391 73.971 18.2171C74.424 18.5411 74.684 19.0386 74.684 19.5806C74.684 20.4201 74.0465 21.2876 72.9775 21.2876C72.313 21.2876 72.0065 21.7621 71.9445 22.1691C71.8805 22.5746 72.03 23.1206 72.6585 23.3196C73.3745 23.5506 73.836 24.1831 73.836 24.9321C73.836 25.6896 73.3745 26.3261 72.6585 26.5561C72.2045 26.6966 71.9355 27.0626 71.9355 27.5356C71.9355 28.0586 72.294 28.5891 72.9775 28.5891C73.7375 28.5891 74.3705 29.0496 74.6 29.7616C74.8295 30.4746 74.5825 31.2181 73.971 31.6586C73.606 31.9226 73.5295 32.2506 73.5295 32.4801C73.5295 32.8296 73.7045 33.1716 73.985 33.3741C74.1685 33.5081 74.485 33.6421 74.911 33.4941C75.7225 33.2391 76.5835 33.6051 76.9625 34.3526C77.253 34.9281 77.1935 35.5861 76.8045 36.1131C76.668 36.2981 76.5965 36.5086 76.5965 36.7226C76.5965 37.1091 76.8415 37.4931 77.205 37.6766C77.4105 37.7811 77.8135 37.9001 78.26 37.5696C79.0175 37.0106 80.112 37.2071 80.6545 37.9586C80.971 38.3961 81.0525 38.9446 80.8805 39.4626C80.8385 39.5811 80.818 39.7011 80.818 39.8236C80.818 40.3261 81.192 40.6706 81.563 40.7906C82.006 40.9271 82.437 40.7881 82.715 40.4031C83.039 39.9501 83.5235 39.7001 84.0785 39.7001C84.543 39.7001 84.9945 39.8876 85.316 40.2141C85.6245 40.5266 85.7915 40.9486 85.7855 41.4016C85.7855 42.0881 86.321 42.4501 86.8505 42.4501C87.0735 42.4501 87.6155 42.3796 87.83 41.7241C88.0615 41.0106 88.694 40.5486 89.443 40.5486ZM89.443 30.3501C86.4555 30.3501 84.025 27.9186 84.025 24.9311C84.025 21.9436 86.455 19.5136 89.443 19.5136C92.4305 19.5136 94.862 21.9436 94.862 24.9311C94.8615 27.9186 92.43 30.3501 89.443 30.3501ZM89.443 20.1671C86.8165 20.1671 84.6785 22.3051 84.6785 24.9316C84.6785 27.5591 86.8165 29.6971 89.443 29.6971C92.0705 29.6971 94.2085 27.5591 94.2085 24.9316C94.2085 22.3046 92.0705 20.1671 89.443 20.1671Z" fill="#232996"/>
    <path d="M104.914 41.0671L106.644 41.0606C107.328 41.0606 107.612 41.9321 107.057 42.3316L105.654 43.3451C105.003 43.8141 105.522 44.8306 106.281 44.5801L107.929 44.0386C108.576 43.8241 109.114 44.5671 108.711 45.1186L107.688 46.5151C107.215 47.1621 108.021 47.9681 108.668 47.4961L110.065 46.4726C110.617 46.0696 111.36 46.6111 111.148 47.2586L110.607 48.9031C110.356 49.6626 111.373 50.1811 111.842 49.5306L112.852 48.1276C113.252 47.5731 114.127 47.8571 114.124 48.5406L114.117 50.2711C114.114 51.0736 115.24 51.2516 115.487 50.4891L116.015 48.8411C116.223 48.1906 117.141 48.1906 117.349 48.8411L117.877 50.4891C118.125 51.2516 119.251 51.0736 119.248 50.2711L119.241 48.5406C119.238 47.8571 120.113 47.5731 120.512 48.1276L121.523 49.5306C121.992 50.1811 123.009 49.6626 122.758 48.9031L122.216 47.2586C122.005 46.6116 122.748 46.0701 123.299 46.4726L124.696 47.4961C125.343 47.9681 126.149 47.1626 125.676 46.5151L124.653 45.1186C124.25 44.5671 124.788 43.8241 125.435 44.0386L127.083 44.5801C127.842 44.8311 128.36 43.8141 127.71 43.3451L126.307 42.3316C125.752 41.9321 126.036 41.0606 126.72 41.0606L128.45 41.0671C129.253 41.0706 129.431 39.9446 128.668 39.7001L127.017 39.1716C126.37 38.9606 126.37 38.0426 127.017 37.8346L128.668 37.3061C129.431 37.0616 129.253 35.9326 128.45 35.9356L126.72 35.9426C126.036 35.9456 125.752 35.0706 126.307 34.6746L127.71 33.6611C128.36 33.1926 127.842 32.1756 127.083 32.4261L125.435 32.9676C124.788 33.1791 124.25 32.4361 124.653 31.8876L125.676 30.4911C126.148 29.8441 125.343 29.0351 124.696 29.5101L123.299 30.5336C122.748 30.9366 122.005 30.3946 122.216 29.7476L122.758 28.1031C123.009 27.3406 121.992 26.8221 121.523 27.4726L120.512 28.8791C120.113 29.4306 119.238 29.1466 119.241 28.4661L119.248 26.7326C119.251 25.9301 118.125 25.7516 117.877 26.5146L117.349 28.1656C117.141 28.8161 116.223 28.8161 116.015 28.1656L115.487 26.5146C115.24 25.7516 114.114 25.9301 114.117 26.7326L114.124 28.4661C114.127 29.1466 113.252 29.4306 112.852 28.8791L111.842 27.4726C111.373 26.8221 110.356 27.3406 110.607 28.1031L111.148 29.7476C111.36 30.3946 110.617 30.9361 110.065 30.5336L108.668 29.5101C108.021 29.0346 107.215 29.8436 107.688 30.4911L108.711 31.8876C109.114 32.4356 108.576 33.1786 107.929 32.9676L106.281 32.4261C105.522 32.1751 105.003 33.1926 105.654 33.6611L107.057 34.6746C107.612 35.0711 107.328 35.9456 106.644 35.9426L104.914 35.9356C104.112 35.9326 103.933 37.0616 104.696 37.3061L106.347 37.8346C106.994 38.0426 106.994 38.9606 106.347 39.1716L104.696 39.7001C103.934 39.9441 104.112 41.0701 104.914 41.0671ZM111.663 38.5016C111.663 35.7311 113.912 33.4861 116.682 33.4861C119.453 33.4861 121.698 35.7316 121.698 38.5016C121.698 41.2716 119.453 43.5206 116.682 43.5206C113.912 43.5201 111.663 41.2716 111.663 38.5016Z" fill="#FFCA22"/>
    <path d="M89.4406 62.1998H94.201V47.1088H89.4406V62.1998Z" fill="#232996"/>
    <path d="M86.5288 61.7945C88.3353 63.8815 90.1413 65.968 91.9473 68.055C93.6688 65.9685 95.3908 63.8815 97.1128 61.7945C93.5843 61.7945 90.0568 61.7945 86.5288 61.7945Z" fill="#232996"/>
    <path d="M112.976 151.631C115.162 152.317 117.458 151.624 118.597 150.036C120.086 147.961 119.473 144.53 116.774 142.82C114.546 140.921 112.318 139.022 110.09 137.123C108.874 140.541 107.659 143.959 106.444 147.378C106.765 147.205 108.265 146.44 109.938 146.998C111.725 147.594 112.979 149.458 112.976 151.631Z" fill="#232996"/>
    <path d="M78.1881 159.057C79.3806 161.013 81.5641 162.005 83.4671 161.562C85.9546 160.982 87.7546 157.998 86.8516 154.933C86.4271 152.036 86.0026 149.139 85.5781 146.243C82.4111 148.013 79.2446 149.783 76.0776 151.553C76.4336 151.634 78.0661 152.048 78.9561 153.57C79.9076 155.197 79.6221 157.425 78.1881 159.057Z" fill="#232996"/>
    <path d="M122.405 145.459C122.862 145.296 123.103 144.789 122.939 144.331L121.559 140.461C121.396 140.004 120.888 139.763 120.431 139.926C119.974 140.089 119.733 140.597 119.896 141.054L121.276 144.924C121.44 145.382 121.948 145.622 122.405 145.459Z" fill="#F4F4F7"/>
    <path d="M120.202 146.637C120.659 146.473 120.9 145.966 120.737 145.509L119.356 141.639C119.193 141.181 118.686 140.941 118.228 141.104C117.771 141.267 117.53 141.775 117.693 142.232L119.074 146.102C119.237 146.559 119.745 146.8 120.202 146.637Z" fill="#F4F4F7"/>
    <path d="M88.2242 160.397C88.6607 160.61 89.1917 160.427 89.4047 159.99L91.2072 156.298C91.4202 155.861 91.2372 155.33 90.8007 155.117C90.3647 154.904 89.8332 155.087 89.6202 155.524L87.8182 159.216C87.6047 159.652 87.7877 160.184 88.2242 160.397Z" fill="#F4F4F7"/>
    <path d="M85.8417 159.645C86.2782 159.858 86.8092 159.675 87.0222 159.239L88.8242 155.546C89.0372 155.11 88.8547 154.579 88.4182 154.366C87.9817 154.153 87.4507 154.335 87.2377 154.772L85.4357 158.464C85.2232 158.9 85.4057 159.432 85.8417 159.645Z" fill="#F4F4F7"/>
    <path d="M3.521 167.286H0.3265C0.1465 167.286 0 167.139 0 166.959C0 166.779 0.1465 166.633 0.3265 166.633H3.5205C3.7005 166.633 3.847 166.779 3.847 166.959C3.8475 167.139 3.701 167.286 3.521 167.286Z" fill="#232996"/>
    <path d="M8.45787 167.286H5.98937C5.80987 167.286 5.66287 167.139 5.66287 166.959C5.66287 166.78 5.80987 166.633 5.98937 166.633H8.45787C8.63737 166.633 8.78437 166.78 8.78437 166.959C8.78437 167.139 8.63787 167.286 8.45787 167.286Z" fill="#232996"/>
    <path d="M133.109 167.285H10.5882C10.4082 167.285 10.2617 167.139 10.2617 166.959C10.2617 166.779 10.4082 166.632 10.5882 166.632H133.109C133.289 166.632 133.436 166.779 133.436 166.959C133.435 167.139 133.289 167.285 133.109 167.285Z" fill="#232996"/>
    <path d="M140.077 167.285H135.359C135.179 167.285 135.032 167.139 135.032 166.959C135.032 166.779 135.179 166.632 135.359 166.632H140.077C140.257 166.632 140.404 166.779 140.404 166.959C140.404 167.139 140.257 167.285 140.077 167.285Z" fill="#232996"/>
    <path d="M143.126 167.285H141.166C140.987 167.285 140.84 167.139 140.84 166.959C140.84 166.779 140.987 166.632 141.166 166.632H143.126C143.306 166.632 143.452 166.779 143.452 166.959C143.452 167.139 143.305 167.285 143.126 167.285Z" fill="#232996"/>
    <path d="M148.715 167.285H145.375C145.196 167.285 145.049 167.139 145.049 166.959C145.049 166.779 145.196 166.632 145.375 166.632H148.715C148.895 166.632 149.042 166.779 149.042 166.959C149.042 167.139 148.895 167.285 148.715 167.285Z" fill="#232996"/>
    <path d="M116.1 9.04159C117.495 9.04159 118.889 9.04159 120.284 9.04159C119.714 6.02759 119.144 3.01409 118.575 9.15527e-05C117.75 3.01409 116.925 6.02809 116.1 9.04159Z" fill="#232996"/>
    <path d="M116.1 9.0416C117.495 9.0416 118.889 9.0416 120.284 9.0416C119.714 12.0556 119.144 15.0696 118.575 18.0831C117.75 15.0696 116.925 12.0556 116.1 9.0416Z" fill="#232996"/>
    <path d="M118.542 6.94998C118.542 8.34448 118.542 9.73898 118.542 11.1335C120.802 10.5635 123.062 9.99398 125.323 9.42398C123.063 8.59948 120.802 7.77498 118.542 6.94998Z" fill="#232996"/>
    <path d="M118.542 6.94998C118.542 8.34448 118.542 9.73898 118.542 11.1335C116.282 10.5635 114.021 9.99398 111.761 9.42398C114.021 8.59948 116.282 7.77498 118.542 6.94998Z" fill="#232996"/>
    <path d="M51.7674 22.6041C53.1619 22.6041 54.5564 22.6041 55.9509 22.6041C55.3809 19.5901 54.8114 16.5766 54.2419 13.5626C53.4174 16.5766 52.5924 19.5901 51.7674 22.6041Z" fill="#232996"/>
    <path d="M51.7674 22.6041C53.1619 22.6041 54.5564 22.6041 55.9509 22.6041C55.3809 25.6181 54.8114 28.6321 54.2419 31.6456C53.4174 28.6321 52.5924 25.6181 51.7674 22.6041Z" fill="#232996"/>
    <path d="M54.2095 20.5125C54.2095 21.907 54.2095 23.3015 54.2095 24.696C56.47 24.126 58.73 23.5565 60.991 22.987C58.73 22.162 56.47 21.337 54.2095 20.5125Z" fill="#232996"/>
    <path d="M54.2092 20.5125C54.2092 21.907 54.2092 23.3015 54.2092 24.696C51.9487 24.126 49.6887 23.5565 47.4277 22.987C49.6887 22.162 51.9487 21.337 54.2092 20.5125Z" fill="#232996"/>
    <path d="M37.3271 38.5032C38.0606 38.5032 38.7936 38.5032 39.5271 38.5032C39.2276 36.9187 38.9276 35.3337 38.6286 33.7492C38.1946 35.3337 37.7611 36.9182 37.3271 38.5032Z" fill="#232996"/>
    <path d="M37.3271 38.5032C38.0606 38.5032 38.7936 38.5032 39.5271 38.5032C39.2276 40.0882 38.9276 41.6727 38.6286 43.2572C38.1946 41.6727 37.7611 40.0877 37.3271 38.5032Z" fill="#232996"/>
    <path d="M38.6113 37.403C38.6113 38.1365 38.6113 38.8695 38.6113 39.6025C39.7998 39.303 40.9883 39.0035 42.1768 38.704C40.9883 38.2705 39.7998 37.8365 38.6113 37.403Z" fill="#232996"/>
    <path d="M38.6115 37.403C38.6115 38.1365 38.6115 38.8695 38.6115 39.6025C37.423 39.303 36.2345 39.0035 35.046 38.704C36.2345 38.2705 37.423 37.8365 38.6115 37.403Z" fill="#232996"/>
    <path d="M137.07 18.8151C137.768 18.8151 138.465 18.8151 139.162 18.8151C138.877 17.3081 138.592 15.8016 138.308 14.2946C137.895 15.8016 137.482 17.3081 137.07 18.8151Z" fill="#232996"/>
    <path d="M137.07 18.8151C137.768 18.8151 138.465 18.8151 139.162 18.8151C138.877 20.3221 138.592 21.8291 138.308 23.3361C137.895 21.8291 137.482 20.3221 137.07 18.8151Z" fill="#232996"/>
    <path d="M138.292 17.7696C138.292 18.4671 138.292 19.1641 138.292 19.8616C139.422 19.5766 140.552 19.2916 141.682 19.0071C140.552 18.5941 139.422 18.1816 138.292 17.7696Z" fill="#232996"/>
    <path d="M138.292 17.7696C138.292 18.4671 138.292 19.1641 138.292 19.8616C137.162 19.5766 136.031 19.2916 134.901 19.0071C136.031 18.5941 137.161 18.1816 138.292 17.7696Z" fill="#232996"/>
</svg>
