<svg width="21" height="22" viewBox="0 0 21 22" fill="none" xmlns="http://www.w3.org/2000/svg">
    <g clip-path="url(#clip0_1_1009)">
        <path d="M10.5005 5.75049C11.463 5.75049 12.2505 6.53799 12.2505 7.50049C12.2505 8.46299 11.463 9.25049 10.5005 9.25049C9.53799 9.25049 8.75049 8.46299 8.75049 7.50049C8.75049 6.53799 9.53799 5.75049 10.5005 5.75049ZM10.5005 14.5005C12.863 14.5005 15.5755 15.6292 15.7505 16.2505H5.25049C5.45174 15.6205 8.14674 14.5005 10.5005 14.5005ZM10.5005 4.00049C8.56674 4.00049 7.00049 5.56674 7.00049 7.50049C7.00049 9.43424 8.56674 11.0005 10.5005 11.0005C12.4342 11.0005 14.0005 9.43424 14.0005 7.50049C14.0005 5.56674 12.4342 4.00049 10.5005 4.00049ZM10.5005 12.7505C8.16424 12.7505 3.50049 13.923 3.50049 16.2505L3.50049 18.0005H17.5005V16.2505C17.5005 13.923 12.8367 12.7505 10.5005 12.7505Z" fill="white"/>
    </g>
    <defs>
        <clipPath id="clip0_1_1009">
            <rect width="21" height="21" fill="white" transform="translate(0.000488281 0.500488)"/>
        </clipPath>
    </defs>
</svg>
