<svg width="123" height="123" viewBox="0 0 123 123" fill="none" xmlns="http://www.w3.org/2000/svg">
    <circle cx="61.5" cy="61.5" r="61.5" fill="#232F3E"/>
    <path d="M45.5437 44.9932L45.0801 45.0576C43.5976 45.2399 42.1869 45.7985 40.9832 46.6797C40.7244 46.8623 40.4872 47.0557 40.2177 47.2598C40.1948 47.2124 40.1803 47.1616 40.1746 47.1094C40.1315 46.8193 40.0883 46.5186 40.0344 46.2285C39.959 45.7344 39.711 45.5195 39.2151 45.5195H37.9752C37.2313 45.5195 37.0912 45.6592 37.0912 46.4004V68.8838C37.0912 68.9912 37.0912 69.0986 37.1019 69.2061C37.1235 69.5283 37.3176 69.7324 37.6302 69.7432C38.3849 69.7539 39.1504 69.7539 39.9051 69.7432C40.2177 69.7432 40.4118 69.5283 40.4441 69.2061C40.4549 69.0986 40.4549 68.9912 40.4549 68.8838V61.1064C40.5735 61.2031 40.6382 61.2568 40.6921 61.3105C42.6219 62.9111 44.8429 63.4375 47.2687 62.9648C49.468 62.5352 50.999 61.1924 51.9908 59.2158C52.7455 57.7227 53.0582 56.1328 53.1013 54.4785C53.1552 52.6416 52.9719 50.8369 52.228 49.1289C51.3116 47.0234 49.7915 45.6377 47.4951 45.165C47.1501 45.0898 46.7943 45.0576 46.4385 45.0039C46.1366 44.9932 45.8455 44.9932 45.5437 44.9932ZM40.4333 49.4941C40.4272 49.4238 40.4411 49.3532 40.4736 49.2905C40.506 49.2278 40.5556 49.1755 40.6166 49.1396C42.0937 48.1191 43.7216 47.582 45.5329 47.7217C47.1393 47.8398 48.4546 48.624 49.1446 50.5039C49.5651 51.6533 49.6729 52.8457 49.6729 54.0488C49.6729 55.166 49.5866 56.2617 49.2416 57.3359C48.5085 59.624 46.8266 60.4941 44.6488 60.3975C43.1394 60.333 41.8241 59.7529 40.6166 58.9043C40.5564 58.8676 40.5074 58.8152 40.4751 58.7527C40.4428 58.6901 40.4283 58.62 40.4333 58.5498C40.4441 57.0352 40.4333 55.5313 40.4333 54.0166C40.4333 52.502 40.4441 51.0088 40.4333 49.4941ZM62.6104 44.9932C62.5026 45.0039 62.3947 45.0254 62.2977 45.0361C61.2471 45.0803 60.2034 45.2278 59.1819 45.4766C58.5243 45.6484 57.8882 45.8848 57.2521 46.0996C56.864 46.2285 56.6699 46.5078 56.6807 46.9268C56.6915 47.2812 56.6699 47.6357 56.6807 47.9902C56.6915 48.5059 56.9071 48.6455 57.4138 48.5166C58.2548 48.3018 59.0957 48.0654 59.9474 47.9043C61.2735 47.6572 62.6104 47.5498 63.958 47.7539C64.6588 47.8613 65.3165 48.0654 65.7693 48.6562C66.1682 49.1719 66.3191 49.7842 66.3407 50.418C66.373 51.3096 66.3623 52.2012 66.373 53.0928C66.3704 53.1434 66.3632 53.1938 66.3515 53.2432C66.2976 53.2324 66.2544 53.2432 66.2113 53.2324C65.0795 52.9544 63.9248 52.7782 62.7613 52.7061C61.543 52.6416 60.3355 52.7168 59.1712 53.125C57.7804 53.6084 56.6591 54.4463 56.0015 55.7998C55.4947 56.8525 55.4193 57.9697 55.581 59.0977C55.7966 60.6016 56.5513 61.7617 57.8882 62.5029C59.1712 63.2119 60.5619 63.2979 61.9743 63.083C63.6022 62.8359 65.0469 62.1484 66.3191 61.1064C66.3711 61.0596 66.4291 61.0199 66.4916 60.9883C66.5563 61.3965 66.6102 61.7832 66.6857 62.1699C66.7504 62.5029 66.9552 62.7178 67.2679 62.7285C67.8501 62.7393 68.443 62.7393 69.0252 62.7285C69.1603 62.7275 69.2897 62.6743 69.3862 62.5801C69.4827 62.4859 69.5388 62.3582 69.5427 62.2236C69.5517 62.1236 69.5553 62.0232 69.5535 61.9229C69.5517 61.8225 69.5535 50.5361 69.5535 50.5361C69.5587 50.0724 69.5263 49.6089 69.4565 49.1504C69.2516 47.7646 68.6587 46.626 67.408 45.8848C66.6857 45.4551 65.8879 45.2402 65.0577 45.1221C64.6696 45.0684 64.2815 45.0361 63.8933 44.9824C63.4729 44.9932 63.0416 44.9932 62.6104 44.9932ZM66.3838 58.7109C66.3879 58.7741 66.3751 58.8372 66.3466 58.8938C66.3182 58.9505 66.2753 58.9985 66.2221 59.0332C65.0146 59.9033 63.6885 60.4834 62.1899 60.6338C61.5754 60.6982 60.9608 60.6768 60.3787 60.4404C60.0587 60.3239 59.7709 60.1337 59.5386 59.8855C59.3063 59.6372 59.1361 59.3379 59.0418 59.0117C58.828 58.3339 58.8243 57.6077 59.031 56.9277C59.3005 56.0361 59.9366 55.5313 60.7991 55.252C61.6648 54.9919 62.5748 54.9114 63.4729 55.0156C64.3785 55.0908 65.2626 55.2627 66.1682 55.3809C66.3407 55.4023 66.3946 55.4883 66.3946 55.6602C66.3838 56.1758 66.3946 56.6807 66.3946 57.1963C66.3946 57.7119 66.373 58.2061 66.3838 58.7109ZM80.1623 59.377C78.7715 55.542 77.3807 51.7035 75.9899 47.8613C75.7743 47.249 75.5371 46.6475 75.3107 46.0459C75.1921 45.7344 74.9657 45.5303 74.6207 45.5303C73.8013 45.5195 72.9819 45.5088 72.1518 45.5195C71.8823 45.5195 71.7529 45.7344 71.8068 46.0029C71.8587 46.2261 71.9272 46.4451 72.0116 46.6582C74.1248 51.8682 76.2487 57.0781 78.3833 62.2881C78.5666 62.7285 78.6098 63.1045 78.4049 63.5557C78.0491 64.3398 77.7688 65.167 77.4023 65.9512C77.0788 66.6494 76.5397 67.1758 75.7635 67.3799C75.2221 67.5208 74.6592 67.5609 74.1032 67.498C73.8337 67.4766 73.5641 67.4121 73.2946 67.3906C72.928 67.3691 72.7448 67.5303 72.734 67.9062C72.7232 68.2643 72.7232 68.6188 72.734 68.9697C72.7448 69.5605 72.9496 69.8291 73.5318 69.9258C74.1325 70.045 74.7418 70.1168 75.3538 70.1406C77.1974 70.1836 78.6637 69.4424 79.6124 67.8418C79.9943 67.2097 80.3259 66.5489 80.6043 65.8652C83.1594 59.4414 85.6966 53.0104 88.2158 46.5723C88.2945 46.3821 88.3523 46.184 88.3884 45.9814C88.4315 45.6807 88.2913 45.5088 87.9894 45.5088C87.2779 45.498 86.5555 45.5088 85.844 45.5088C85.6629 45.4962 85.4827 45.5443 85.3323 45.6455C85.1818 45.7468 85.0697 45.8953 85.0138 46.0674C84.9599 46.2178 84.8952 46.3574 84.8413 46.5078L81.0894 57.25C80.8199 58.0234 80.5396 58.8076 80.2593 59.6348C80.2162 59.5166 80.1946 59.4521 80.1623 59.377Z" fill="white"/>
    <g clip-path="url(#clip0_4_370)">
        <path d="M28.5093 72.9443C28.7572 72.4932 29.0699 72.418 29.5551 72.6758C30.6763 73.2773 31.776 73.9004 32.9188 74.4697C37.2925 76.6428 41.9007 78.3114 46.6541 79.4434C48.9017 79.9837 51.176 80.4068 53.4679 80.7109C56.8619 81.1655 60.2866 81.3523 63.7101 81.2695C65.586 81.2266 67.4619 81.0762 69.3271 80.8613C75.3829 80.158 81.3094 78.6103 86.9329 76.2637C87.2455 76.1348 87.569 76.0488 87.914 76.1348C88.6363 76.3281 88.8843 77.1016 88.356 77.6279C88.0347 77.9222 87.6884 78.1882 87.321 78.4229C84.0112 80.6895 80.3994 82.333 76.5829 83.5684C73.9401 84.417 71.2322 85.0493 68.4862 85.459C66.5868 85.7489 64.6713 85.9211 62.7505 85.9746C62.6601 85.98 62.5701 85.9908 62.481 86.0068H60.2062C60.117 85.9908 60.027 85.98 59.9366 85.9746C59.5485 85.9531 59.1604 85.9424 58.783 85.9316C56.9621 85.8494 55.1476 85.6593 53.3493 85.3623C50.3964 84.8828 47.4946 84.1312 44.6812 83.1172C38.8938 81.0376 33.5637 77.8643 28.9837 73.7715C28.7896 73.5996 28.6602 73.3633 28.5093 73.1592V72.9443ZM45.5437 44.9932L45.0801 45.0576C43.5976 45.2399 42.1869 45.7985 40.9832 46.6797C40.7244 46.8623 40.4872 47.0557 40.2177 47.2598C40.1948 47.2124 40.1803 47.1616 40.1746 47.1094C40.1315 46.8193 40.0883 46.5186 40.0344 46.2285C39.959 45.7344 39.711 45.5195 39.2151 45.5195H37.9752C37.2313 45.5195 37.0912 45.6592 37.0912 46.4004V68.8838C37.0912 68.9912 37.0912 69.0986 37.1019 69.2061C37.1235 69.5283 37.3176 69.7324 37.6302 69.7432C38.3849 69.7539 39.1504 69.7539 39.9051 69.7432C40.2177 69.7432 40.4118 69.5283 40.4441 69.2061C40.4549 69.0986 40.4549 68.9912 40.4549 68.8838V61.1064C40.5735 61.2031 40.6382 61.2568 40.6921 61.3105C42.6219 62.9111 44.8429 63.4375 47.2687 62.9648C49.468 62.5352 50.999 61.1924 51.9908 59.2158C52.7455 57.7227 53.0582 56.1328 53.1013 54.4785C53.1552 52.6416 52.9719 50.8369 52.228 49.1289C51.3116 47.0234 49.7915 45.6377 47.4951 45.165C47.1501 45.0898 46.7943 45.0576 46.4385 45.0039C46.1366 44.9932 45.8455 44.9932 45.5437 44.9932ZM40.4333 49.4941C40.4272 49.4238 40.4411 49.3532 40.4736 49.2905C40.506 49.2278 40.5556 49.1755 40.6166 49.1396C42.0937 48.1191 43.7216 47.582 45.5329 47.7217C47.1393 47.8398 48.4546 48.624 49.1446 50.5039C49.5651 51.6533 49.6729 52.8457 49.6729 54.0488C49.6729 55.166 49.5866 56.2617 49.2416 57.3359C48.5085 59.624 46.8266 60.4941 44.6488 60.3975C43.1394 60.333 41.8241 59.7529 40.6166 58.9043C40.5564 58.8676 40.5074 58.8152 40.4751 58.7527C40.4428 58.6901 40.4283 58.62 40.4333 58.5498C40.4441 57.0352 40.4333 55.5313 40.4333 54.0166C40.4333 52.502 40.4441 51.0088 40.4333 49.4941ZM62.6104 44.9932C62.5026 45.0039 62.3947 45.0254 62.2977 45.0361C61.2471 45.0803 60.2034 45.2278 59.1819 45.4766C58.5243 45.6484 57.8882 45.8848 57.2521 46.0996C56.864 46.2285 56.6699 46.5078 56.6807 46.9268C56.6915 47.2812 56.6699 47.6357 56.6807 47.9902C56.6915 48.5059 56.9071 48.6455 57.4138 48.5166C58.2548 48.3018 59.0957 48.0654 59.9474 47.9043C61.2735 47.6572 62.6104 47.5498 63.958 47.7539C64.6588 47.8613 65.3165 48.0654 65.7693 48.6562C66.1682 49.1719 66.3191 49.7842 66.3407 50.418C66.373 51.3096 66.3623 52.2012 66.373 53.0928C66.3704 53.1434 66.3632 53.1938 66.3515 53.2432C66.2976 53.2324 66.2544 53.2432 66.2113 53.2324C65.0795 52.9544 63.9248 52.7782 62.7613 52.7061C61.543 52.6416 60.3355 52.7168 59.1712 53.125C57.7804 53.6084 56.6591 54.4463 56.0015 55.7998C55.4948 56.8525 55.4193 57.9697 55.581 59.0977C55.7966 60.6016 56.5513 61.7617 57.8882 62.5029C59.1712 63.2119 60.5619 63.2979 61.9743 63.083C63.6022 62.8359 65.0469 62.1484 66.3191 61.1064C66.3711 61.0596 66.4291 61.0199 66.4916 60.9883C66.5563 61.3965 66.6102 61.7832 66.6857 62.1699C66.7504 62.5029 66.9552 62.7178 67.2679 62.7285C67.8501 62.7393 68.443 62.7393 69.0252 62.7285C69.1603 62.7275 69.2897 62.6743 69.3862 62.5801C69.4827 62.4859 69.5388 62.3582 69.5427 62.2236C69.5517 62.1236 69.5553 62.0232 69.5535 61.9229V50.5361C69.5587 50.0724 69.5263 49.6089 69.4565 49.1504C69.2516 47.7646 68.6587 46.626 67.408 45.8848C66.6857 45.4551 65.8879 45.2402 65.0577 45.1221C64.6696 45.0684 64.2815 45.0361 63.8933 44.9824C63.4729 44.9932 63.0416 44.9932 62.6104 44.9932ZM66.3838 58.7109C66.3879 58.7741 66.3751 58.8372 66.3466 58.8938C66.3182 58.9505 66.2753 58.9985 66.2221 59.0332C65.0146 59.9033 63.6885 60.4834 62.1899 60.6338C61.5754 60.6982 60.9608 60.6768 60.3787 60.4404C60.0587 60.3239 59.7709 60.1337 59.5386 59.8855C59.3063 59.6372 59.1361 59.3379 59.0418 59.0117C58.828 58.3339 58.8243 57.6077 59.031 56.9277C59.3005 56.0361 59.9366 55.5313 60.7991 55.252C61.6648 54.9919 62.5748 54.9114 63.4729 55.0156C64.3785 55.0908 65.2626 55.2627 66.1682 55.3809C66.3407 55.4023 66.3946 55.4883 66.3946 55.6602C66.3838 56.1758 66.3946 56.6807 66.3946 57.1963C66.3946 57.7119 66.373 58.2061 66.3838 58.7109ZM94.4043 72.6113C94.2965 72.0742 93.8868 71.8701 93.4232 71.7197C92.6883 71.4894 91.928 71.3488 91.1591 71.3008C89.7475 71.1807 88.3262 71.2493 86.9329 71.5049C85.3912 71.7949 83.9249 72.2891 82.6204 73.1807C82.4651 73.2801 82.3298 73.4077 82.2215 73.5566C82.1837 73.6209 82.1595 73.6921 82.1502 73.766C82.1409 73.8398 82.1468 73.9148 82.1676 73.9863C82.2107 74.1475 82.394 74.1904 82.5557 74.1797C82.6349 74.1815 82.7142 74.1779 82.7929 74.1689C83.6338 74.083 84.464 73.9863 85.3049 73.9004C86.534 73.7822 87.7738 73.707 89.0029 73.8037C89.529 73.8473 90.0492 73.9445 90.5554 74.0938C91.1052 74.2441 91.3532 74.6523 91.3748 75.2109C91.4179 76.0703 91.2238 76.8975 90.9974 77.7139C90.5554 79.3682 89.9193 80.9688 89.294 82.5586C89.2484 82.6626 89.2123 82.7704 89.1862 82.8809C89.1323 83.1924 89.3155 83.3965 89.6282 83.3213C89.8212 83.2781 89.9995 83.1855 90.1457 83.0527C90.6321 82.6022 91.0895 82.1214 91.5149 81.6133C92.8949 79.8516 93.7035 77.8213 94.1779 75.6406C94.2641 75.2539 94.3288 74.8564 94.4043 74.4697V72.6113ZM80.1623 59.377C78.7715 55.542 77.3807 51.7035 75.9899 47.8613C75.7743 47.249 75.5371 46.6475 75.3107 46.0459C75.1921 45.7344 74.9657 45.5303 74.6207 45.5303C73.8013 45.5195 72.9819 45.5088 72.1518 45.5195C71.8823 45.5195 71.7529 45.7344 71.8068 46.0029C71.8587 46.2261 71.9272 46.4451 72.0116 46.6582C74.1248 51.8682 76.2487 57.0781 78.3833 62.2881C78.5666 62.7285 78.6098 63.1045 78.4049 63.5557C78.0491 64.3398 77.7688 65.167 77.4023 65.9512C77.0788 66.6494 76.5398 67.1758 75.7635 67.3799C75.2221 67.5208 74.6592 67.5609 74.1032 67.498C73.8337 67.4766 73.5641 67.4121 73.2946 67.3906C72.928 67.3691 72.7448 67.5303 72.734 67.9062C72.7232 68.2643 72.7232 68.6188 72.734 68.9697C72.7448 69.5605 72.9496 69.8291 73.5318 69.9258C74.1325 70.045 74.7418 70.1168 75.3538 70.1406C77.1974 70.1836 78.6637 69.4424 79.6124 67.8418C79.9943 67.2097 80.3259 66.5489 80.6043 65.8652C83.1594 59.4414 85.6966 53.0104 88.2158 46.5723C88.2945 46.3821 88.3523 46.184 88.3884 45.9814C88.4315 45.6807 88.2913 45.5088 87.9894 45.5088C87.2779 45.498 86.5555 45.5088 85.844 45.5088C85.6629 45.4962 85.4827 45.5443 85.3323 45.6455C85.1818 45.7468 85.0697 45.8953 85.0138 46.0674C84.9599 46.2178 84.8952 46.3574 84.8413 46.5078L81.0894 57.25C80.8199 58.0234 80.5396 58.8076 80.2593 59.6348C80.2162 59.5166 80.1946 59.4521 80.1623 59.377Z" fill="#FF9900"/>
    </g>
    <defs>
        <clipPath id="clip0_4_370">
            <rect width="69" height="21" fill="white" transform="translate(27 72)"/>
        </clipPath>
    </defs>
</svg>
