<svg width="123" height="123" viewBox="0 0 123 123" fill="none" xmlns="http://www.w3.org/2000/svg">
    <circle cx="61.5" cy="61.5" r="61.5" fill="#232F3E"/>
    <path d="M86 46.5556L90.5 41L95 46.5556H90.5H86Z" fill="#FF9900"/>
    <path d="M90.5 55V41M90.5 41L86 46.5556H95L90.5 41Z" stroke="#FF9900" stroke-width="4"/>
    <path d="M76 40H47C42.5817 40 39 43.5818 39 48.0001C39 49.7338 39 51.402 39 53.0263M91.1053 64.6053V76.8684C91.1053 81.2867 87.5235 84.8684 83.1053 84.8684H47C42.5817 84.8684 39 81.2856 39 76.8673C39 68.1899 39 61.1563 39 53.0263M39 53.0263H76" stroke="white" stroke-width="4"/>
    <path d="M49 74H54.7895M60.5789 74H72.1579" stroke="#FF9900" stroke-width="4"/>
</svg>
