<svg width="123" height="123" viewBox="0 0 123 123" fill="none" xmlns="http://www.w3.org/2000/svg">
    <circle cx="61.5" cy="61.5" r="61.5" fill="#232F3E"/>
    <path d="M47.75 47.75H52.3333V52.3333H47.75V47.75Z" fill="white"/>
    <path d="M40.875 59.2083V40.875H59.2083V59.2083H40.875ZM45.4583 45.4583V54.625H54.625V45.4583H45.4583ZM63.7917 63.7917H70.6667V68.375H63.7917V63.7917Z" fill="white"/>
    <path d="M70.6667 68.375H75.2501V63.7917H82.1251V70.6667H75.2501V72.9583H77.5417V75.25H82.1251V82.125H77.5417V77.5417H72.9584V82.125H63.7917V72.9583H68.3751V77.5417H70.6667V68.375ZM75.2501 47.75H70.6667V52.3333H75.2501V47.75Z" fill="#FF9900"/>
    <path d="M63.7917 40.875V59.2083H82.125V40.875H63.7917ZM77.5417 45.4583V54.625H68.375V45.4583H77.5417ZM47.75 70.6667H52.3333V75.25H47.75V70.6667Z" fill="white"/>
    <path d="M40.875 82.125V63.7917H59.2083V82.125H40.875ZM45.4583 68.375V77.5417H54.625V68.375H45.4583Z" fill="white"/>
</svg>
