<svg width="24" height="25" viewBox="0 0 24 25" fill="none" xmlns="http://www.w3.org/2000/svg">
    <path d="M4 9.97144C4 7.14301 4 5.72879 4.87868 4.85012C5.75736 3.97144 7.17157 3.97144 10 3.97144H14C16.8284 3.97144 18.2426 3.97144 19.1213 4.85012C20 5.72879 20 7.14301 20 9.97144V16.799C20 19.4823 20 20.824 19.1557 21.2343C18.3114 21.6447 17.2565 20.8158 15.1465 19.158L14.4713 18.6274C13.2849 17.6953 12.6917 17.2292 12 17.2292C11.3083 17.2292 10.7151 17.6953 9.52871 18.6274L8.85346 19.158C6.74355 20.8158 5.68859 21.6447 4.84429 21.2343C4 20.824 4 19.4823 4 16.799V9.97144Z" fill="#333333" stroke="#333333" stroke-width="2"/>
</svg>
