<svg width="24" height="25" viewBox="0 0 24 25" fill="none" xmlns="http://www.w3.org/2000/svg">
    <path d="M4.45067 14.8796L11.4033 21.4109C11.6428 21.6359 11.7625 21.7484 11.9037 21.7761C11.9673 21.7885 12.0327 21.7885 12.0963 21.7761C12.2375 21.7484 12.3572 21.6359 12.5967 21.4109L19.5493 14.8796C21.5055 13.042 21.743 10.018 20.0978 7.8975L19.7885 7.49878C17.8203 4.96202 13.8696 5.38745 12.4867 8.28509C12.2913 8.6944 11.7087 8.6944 11.5133 8.28509C10.1304 5.38745 6.17972 4.96202 4.21154 7.49878L3.90219 7.8975C2.25695 10.018 2.4945 13.042 4.45067 14.8796Z" fill="#333333" stroke="#333333" stroke-width="2"/>
</svg>
