<svg width="24" height="25" viewBox="0 0 24 25" fill="none" xmlns="http://www.w3.org/2000/svg">
    <path fill-rule="evenodd" clip-rule="evenodd" d="M3.0132 10.1227C3 10.6617 3 11.2735 3 11.9714V13.9714C3 16.7999 3 18.2141 3.87868 19.0928C4.75736 19.9714 6.17157 19.9714 9 19.9714H15C17.8284 19.9714 19.2426 19.9714 20.1213 19.0928C21 18.2141 21 16.7999 21 13.9714V11.9714C21 11.2735 21 10.6617 20.9868 10.1227L12.9713 14.5758C12.3672 14.9114 11.6328 14.9114 11.0287 14.5758L3.0132 10.1227ZM3.24297 8.00115C3.32584 8.02195 3.4074 8.05381 3.48564 8.09728L12 12.8275L20.5144 8.09728C20.5926 8.05381 20.6742 8.02196 20.757 8.00115C20.6271 7.52763 20.4276 7.15635 20.1213 6.85012C19.2426 5.97144 17.8284 5.97144 15 5.97144H9C6.17157 5.97144 4.75736 5.97144 3.87868 6.85012C3.57245 7.15635 3.37294 7.52762 3.24297 8.00115Z" fill="#333333"/>
</svg>
