<svg width="24" height="25" viewBox="0 0 24 25" fill="none" xmlns="http://www.w3.org/2000/svg">
    <path d="M6.44784 8.94085C6.76219 6.11175 9.15349 3.97144 12 3.97144V3.97144C14.8465 3.97144 17.2378 6.11176 17.5522 8.94085L17.804 11.2071C17.8072 11.236 17.8088 11.2504 17.8104 11.2647C17.9394 12.3884 18.3051 13.472 18.8836 14.4439C18.8909 14.4563 18.8984 14.4688 18.9133 14.4937L19.4914 15.4571C20.0159 16.3313 20.2782 16.7685 20.2216 17.1273C20.1839 17.3661 20.061 17.5831 19.8757 17.7383C19.5971 17.9714 19.0873 17.9714 18.0678 17.9714H5.93223C4.91268 17.9714 4.40291 17.9714 4.12434 17.7383C3.93897 17.5831 3.81609 17.3661 3.77841 17.1273C3.72179 16.7685 3.98407 16.3313 4.50862 15.4571L5.08665 14.4937C5.10161 14.4688 5.10909 14.4563 5.11644 14.4439C5.69488 13.472 6.06064 12.3884 6.18959 11.2647C6.19123 11.2504 6.19283 11.236 6.19604 11.2071L6.44784 8.94085Z" stroke="#333333" stroke-width="2"/>
    <path d="M9.10222 18.6361C9.27315 19.593 9.64978 20.4385 10.1737 21.0415C10.6976 21.6446 11.3396 21.9714 12 21.9714C12.6604 21.9714 13.3024 21.6446 13.8263 21.0415C14.3502 20.4385 14.7269 19.593 14.8978 18.6361" stroke="#333333" stroke-width="2" stroke-linecap="round"/>
</svg>
