<svg width="24" height="25" viewBox="0 0 24 25" fill="none" xmlns="http://www.w3.org/2000/svg">
    <path d="M5.99994 8.97144C5.99994 5.65773 8.68623 2.97144 11.9999 2.97144C15.3136 2.97144 17.9999 5.65773 17.9999 8.97144V10.8024C17.9999 12.2217 18.3857 13.6143 19.1159 14.8314L19.6693 15.7538C20.0364 16.3655 20.2199 16.6714 20.2325 16.9212C20.252 17.308 20.0462 17.6714 19.7045 17.8537C19.4838 17.9714 19.1271 17.9714 18.4137 17.9714H5.58624C4.8728 17.9714 4.51608 17.9714 4.29543 17.8537C3.95367 17.6714 3.74797 17.308 3.76744 16.9212C3.78 16.6714 3.96353 16.3655 4.33059 15.7537L4.884 14.8314C5.61421 13.6143 5.99994 12.2217 5.99994 10.8024V8.97144Z" fill="#333333"/>
    <path d="M14.35 18.9714C14.4328 18.9714 14.5007 19.0387 14.493 19.1212C14.4484 19.5969 14.1923 20.046 13.7678 20.3856C13.2989 20.7607 12.663 20.9714 12 20.9714C11.337 20.9714 10.7011 20.7607 10.2322 20.3856C9.80772 20.046 9.55165 19.5969 9.50702 19.1212C9.49928 19.0387 9.56716 18.9714 9.65 18.9714L12 18.9714L14.35 18.9714Z" fill="#333333"/>
</svg>
