<svg width="24" height="25" viewBox="0 0 24 25" fill="none" xmlns="http://www.w3.org/2000/svg">
    <path d="M14.1361 4.33287L15.1312 4.23337L14.1361 4.33287ZM13.9838 3.51305L13.095 3.97143V3.97144L13.9838 3.51305ZM14.4311 5.78936L15.2261 5.18284L15.2261 5.18284L14.4311 5.78936ZM15.3595 6.17391L15.2261 5.18284L15.3595 6.17391ZM16.5979 5.35257L17.2311 6.12652L17.2311 6.12652L16.5979 5.35257ZM17.2853 4.88062L17.5896 5.83319L17.2853 4.88062ZM17.9872 4.91563L18.3848 3.99806L18.3848 3.99806L17.9872 4.91563ZM18.6243 5.45363L17.9172 6.16074L17.9172 6.16074L18.6243 5.45363ZM19.5178 6.3471L20.2249 5.64L20.2249 5.64L19.5178 6.3471ZM20.0558 6.98419L20.9733 6.58661L20.9733 6.5866L20.0558 6.98419ZM20.0908 7.68608L21.0434 7.99039L21.0434 7.99038L20.0908 7.68608ZM19.6188 8.37354L18.8449 7.7403L18.8449 7.7403L19.6188 8.37354ZM18.7975 9.61199L17.8064 9.47868L17.8064 9.47868L18.7975 9.61199ZM19.182 10.5404L18.5755 11.3354L18.5755 11.3354L19.182 10.5404ZM20.6385 10.8353L20.738 9.84025L20.6385 10.8353ZM21.4584 10.9877L21.9168 10.0989L21.9168 10.0989L21.4584 10.9877ZM21.9299 11.5087L22.8599 11.141L22.8599 11.141L21.9299 11.5087ZM21.93 14.434L21 14.0664L21 14.0665L21.93 14.434ZM21.4583 14.9552L21.9166 15.844L21.9166 15.844L21.4583 14.9552ZM20.6386 15.1076L20.5391 14.1125L20.5065 14.1158L20.4742 14.1212L20.6386 15.1076ZM20.6386 15.1076L20.7381 16.1026L20.7707 16.0994L20.803 16.094L20.6386 15.1076ZM19.1825 15.4023L18.5762 14.6072L18.5762 14.6072L19.1825 15.4023ZM18.7979 16.331L17.8068 16.4646V16.4646L18.7979 16.331ZM19.619 17.569L18.845 18.2023H18.845L19.619 17.569ZM20.0908 18.2562L19.1383 18.5607V18.5607L20.0908 18.2562ZM20.0558 18.9584L19.1383 18.5607L19.1383 18.5607L20.0558 18.9584ZM19.5179 19.5952L20.225 20.3023H20.225L19.5179 19.5952ZM18.6243 20.4888L17.9172 19.7817L17.9172 19.7817L18.6243 20.4888ZM17.9873 21.0268L18.3849 21.9444L18.3849 21.9444L17.9873 21.0268ZM17.2854 21.0618L16.981 22.0144L16.981 22.0144L17.2854 21.0618ZM16.5979 20.5899L17.2312 19.8159L17.2226 19.809L16.5979 20.5899ZM16.5979 20.5898L15.9646 21.3639L15.9732 21.3707L16.5979 20.5898ZM15.3595 19.7685L15.4928 18.7774H15.4928L15.3595 19.7685ZM14.4311 20.1531L15.2262 20.7596L15.2262 20.7596L14.4311 20.1531ZM14.1362 21.6098L13.1411 21.5103V21.5103L14.1362 21.6098ZM13.9837 22.4299L13.095 21.9714L13.095 21.9714L13.9837 22.4299ZM13.4628 22.9013L13.095 21.9714L13.095 21.9714L13.4628 22.9013ZM10.5373 22.9014L10.905 21.9714L10.5373 22.9014ZM10.0162 22.4298L10.905 21.9714H10.905L10.0162 22.4298ZM9.86385 21.61L8.86882 21.7095V21.7095L9.86385 21.61ZM9.56892 20.1534L8.77387 20.76L8.77387 20.76L9.56892 20.1534ZM8.64057 19.7689L8.50728 18.7778H8.50727L8.64057 19.7689ZM7.40208 20.5903L6.76884 19.8163L6.753 19.8293L6.73771 19.8429L7.40208 20.5903ZM7.40206 20.5903L8.0353 21.3643L8.05113 21.3513L8.06643 21.3377L7.40206 20.5903ZM6.71458 21.0623L7.01887 22.0149H7.01887L6.71458 21.0623ZM6.01272 21.0273L5.61515 21.9448H5.61515L6.01272 21.0273ZM5.37561 20.4892L6.08271 19.7821H6.08271L5.37561 20.4892ZM4.48217 19.5958L3.77506 20.3029L3.77506 20.3029L4.48217 19.5958ZM3.94414 18.9587L4.86171 18.5611L4.86171 18.5611L3.94414 18.9587ZM3.90913 18.2568L4.86171 18.5611L4.86171 18.5611L3.90913 18.2568ZM4.3811 17.5693L5.15506 18.2026H5.15506L4.3811 17.5693ZM5.20247 16.3309L6.19355 16.4642L5.20247 16.3309ZM4.81792 15.4025L5.42445 14.6074L5.42445 14.6074L4.81792 15.4025ZM3.36143 15.1076L3.26193 16.1026H3.26193L3.36143 15.1076ZM2.54161 14.9552L3 14.0664H3L2.54161 14.9552ZM2.07005 14.4341L1.14009 14.8018L1.14009 14.8018L2.07005 14.4341ZM2.07008 11.5086L1.14017 11.1409L1.14017 11.1409L2.07008 11.5086ZM2.54152 10.9877L2.08305 10.099L2.08305 10.099L2.54152 10.9877ZM3.36155 10.8353V9.83528H3.31167L3.26205 9.84024L3.36155 10.8353ZM3.36156 10.8353V11.8353H3.41143L3.46106 11.8303L3.36156 10.8353ZM4.81842 10.5402L4.21178 9.74527L4.21177 9.74527L4.81842 10.5402ZM5.20287 9.6121L6.19396 9.47893L6.19396 9.47893L5.20287 9.6121ZM4.38128 8.37325L5.15523 7.74002H5.15523L4.38128 8.37325ZM3.90914 7.68549L4.86175 7.38132L4.86175 7.38132L3.90914 7.68549ZM3.94413 6.98387L3.02651 6.58642L3.02651 6.58642L3.94413 6.98387ZM4.48233 6.34652L5.18944 7.05363H5.18944L4.48233 6.34652ZM5.37565 5.4532L4.66855 4.7461V4.7461L5.37565 5.4532ZM6.01277 4.91516L5.6152 3.99759L5.6152 3.99759L6.01277 4.91516ZM6.71463 4.88016L7.01892 3.92758V3.92758L6.71463 4.88016ZM7.4022 5.3522L8.03543 4.57824V4.57824L7.4022 5.3522ZM8.64044 6.1735L8.77391 5.18245L8.64044 6.1735ZM9.56907 5.78885L8.77391 5.18245L8.77391 5.18245L9.56907 5.78885ZM9.86387 4.33274L10.8589 4.43224V4.43224L9.86387 4.33274ZM10.0162 3.51314L9.12739 3.05484L9.12739 3.05484L10.0162 3.51314ZM10.5374 3.04144L10.905 3.97144L10.905 3.97144L10.5374 3.04144ZM13.4627 3.04148L13.8304 2.11153V2.11153L13.4627 3.04148ZM15.1312 4.23337C15.1108 4.02975 15.0912 3.82837 15.0626 3.65824C15.0324 3.47827 14.9828 3.26848 14.8725 3.05466L13.095 3.97144C13.0721 3.92693 13.0769 3.91022 13.0902 3.98942C13.1052 4.07845 13.1181 4.20233 13.1411 4.43238L15.1312 4.23337ZM15.2261 5.18284C15.2894 5.26576 15.2693 5.30245 15.2342 5.10739C15.2008 4.92188 15.1739 4.66059 15.1312 4.23337L13.1411 4.43238C13.1805 4.82603 13.2152 5.18038 13.2658 5.46161C13.3147 5.73327 13.4009 6.08777 13.636 6.39588L15.2261 5.18284ZM15.2261 5.18284L15.2261 5.18284L13.636 6.39588C14.0718 6.96719 14.7806 7.26079 15.4928 7.16499L15.2261 5.18284ZM15.9646 4.57861C15.6323 4.85048 15.4286 5.01625 15.2738 5.12381C15.1111 5.23692 15.1228 5.19675 15.2261 5.18284L15.4928 7.16499C15.8768 7.11332 16.1885 6.92367 16.4152 6.76614C16.6498 6.60307 16.9249 6.37704 17.2311 6.12652L15.9646 4.57861ZM16.981 3.92805C16.7518 4.00126 16.5684 4.11452 16.4198 4.22041C16.2793 4.32051 16.123 4.44903 15.9646 4.57861L17.2311 6.12652C17.41 5.98012 17.5068 5.90166 17.5803 5.84927C17.6457 5.80268 17.6373 5.81795 17.5896 5.83319L16.981 3.92805ZM18.3848 3.99806C17.9408 3.80565 17.442 3.78077 16.981 3.92805L17.5896 5.83319L17.5896 5.83319L18.3848 3.99806ZM19.3314 4.74653C19.1867 4.60183 19.044 4.4584 18.9142 4.34481C18.7768 4.22466 18.6056 4.09372 18.3848 3.99806L17.5896 5.83319C17.5437 5.81328 17.5369 5.79725 17.5973 5.85012C17.6653 5.90956 17.7537 5.99726 17.9172 6.16074L19.3314 4.74653ZM20.2249 5.64L19.3314 4.74653L17.9172 6.16074L18.8107 7.05421L20.2249 5.64ZM20.9733 6.5866C20.8777 6.36584 20.7467 6.1946 20.6266 6.05725C20.513 5.9274 20.3696 5.7847 20.2249 5.64L18.8106 7.05421C18.9741 7.21769 19.0618 7.30612 19.1213 7.37407C19.1742 7.43452 19.1581 7.42772 19.1382 7.38178L20.9733 6.5866ZM21.0434 7.99038C21.1906 7.5294 21.1658 7.03066 20.9733 6.58661L19.1382 7.38177L19.1382 7.38178L21.0434 7.99038ZM20.3928 9.00678C20.5224 8.8484 20.6509 8.69213 20.751 8.55162C20.8569 8.403 20.9701 8.21957 21.0434 7.99039L19.1382 7.38177C19.1535 7.33406 19.1687 7.32571 19.1221 7.39111C19.0697 7.46464 18.9913 7.56136 18.8449 7.7403L20.3928 9.00678ZM19.7885 9.74531C19.7746 9.84867 19.7345 9.86038 19.8476 9.69762C19.9551 9.54284 20.1209 9.33908 20.3928 9.00677L18.8449 7.7403C18.5943 8.04649 18.3683 8.3216 18.2052 8.55624C18.0477 8.78292 17.8581 9.0946 17.8064 9.47868L19.7885 9.74531ZM19.7885 9.7453V9.7453L17.8064 9.47868C17.7106 10.1908 18.0042 10.8996 18.5755 11.3354L19.7885 9.7453ZM20.738 9.84025C20.3108 9.79753 20.0495 9.77066 19.864 9.73727C19.6689 9.70217 19.7056 9.68204 19.7885 9.7453L18.5755 11.3354C18.8836 11.5705 19.2381 11.6568 19.5098 11.7057C19.791 11.7563 20.1454 11.791 20.539 11.8303L20.738 9.84025ZM21.9168 10.0989C21.703 9.98864 21.4932 9.93902 21.3132 9.9088C21.1431 9.88023 20.9417 9.86062 20.738 9.84025L20.539 11.8303C20.7691 11.8533 20.893 11.8662 20.982 11.8812C21.0612 11.8945 21.0445 11.8994 21 11.8764L21.9168 10.0989ZM22.8599 11.141C22.682 10.691 22.3469 10.3208 21.9168 10.0989L21 11.8764L21 11.8764L22.8599 11.141ZM23 12.3397C23 12.135 23.0005 11.9327 22.989 11.7606C22.9769 11.5785 22.9484 11.3648 22.8599 11.141L21 11.8764C20.9816 11.8298 20.9881 11.8137 20.9935 11.8938C20.9995 11.9839 21 12.1085 21 12.3397H23ZM23 13.6033V12.3397H21V13.6033H23ZM22.86 14.8017C22.9484 14.578 22.9769 14.3643 22.989 14.1823C23.0005 14.0102 23 13.8079 23 13.6033H21C21 13.8345 20.9995 13.959 20.9935 14.049C20.9881 14.1291 20.9816 14.113 21 14.0664L22.86 14.8017ZM21.9166 15.844C22.3469 15.6222 22.682 15.2518 22.86 14.8016L21 14.0665V14.0664L21.9166 15.844ZM20.7381 16.1026C20.9417 16.0823 21.1431 16.0626 21.3132 16.0341C21.4931 16.0039 21.7028 15.9543 21.9166 15.844L21 14.0664C21.0445 14.0435 21.0612 14.0484 20.982 14.0617C20.893 14.0766 20.7691 14.0895 20.5391 14.1125L20.7381 16.1026ZM20.803 16.094L20.803 16.094L20.4742 14.1212L20.4742 14.1212L20.803 16.094ZM19.7889 16.1975C19.706 16.2608 19.6693 16.2406 19.8644 16.2056C20.0498 16.1722 20.311 16.1453 20.7381 16.1026L20.5391 14.1125C20.1456 14.1519 19.7913 14.1866 19.5102 14.2372C19.2386 14.286 18.8842 14.3723 18.5762 14.6072L19.7889 16.1975ZM19.7889 16.1975L19.7889 16.1975L18.5762 14.6072C18.0046 15.043 17.7108 15.7522 17.8068 16.4646L19.7889 16.1975ZM20.3929 16.9358C20.1212 16.6036 19.9555 16.3999 19.8479 16.2452C19.7348 16.0825 19.775 16.0942 19.7889 16.1975L17.8068 16.4646C17.8585 16.8485 18.0481 17.16 18.2056 17.3866C18.3686 17.6212 18.5946 17.8962 18.845 18.2023L20.3929 16.9358ZM21.0433 17.9518C20.9701 17.7227 20.8569 17.5393 20.751 17.3908C20.651 17.2503 20.5225 17.0941 20.3929 16.9358L18.845 18.2023C18.9914 18.3811 19.0698 18.4778 19.1222 18.5513C19.1688 18.6167 19.1535 18.6083 19.1383 18.5607L21.0433 17.9518ZM20.9733 19.3561C21.1658 18.9119 21.1907 18.4129 21.0433 17.9518L19.1383 18.5607L19.1383 18.5607L20.9733 19.3561ZM20.225 20.3023C20.3697 20.1577 20.5131 20.015 20.6266 19.8852C20.7467 19.7479 20.8776 19.5767 20.9733 19.3561L19.1383 18.5607C19.1582 18.5147 19.1742 18.5079 19.1213 18.5684C19.0619 18.6363 18.9742 18.7247 18.8108 18.8881L20.225 20.3023ZM19.3314 21.1959L20.225 20.3023L18.8108 18.8881L17.9172 19.7817L19.3314 21.1959ZM18.3849 21.9444C18.6056 21.8487 18.7769 21.7178 18.9142 21.5976C19.044 21.484 19.1867 21.3406 19.3314 21.1959L17.9172 19.7817C17.7537 19.9452 17.6653 20.0329 17.5974 20.0923C17.5369 20.1452 17.5437 20.1292 17.5897 20.1092L18.3849 21.9444ZM16.981 22.0144C17.442 22.1617 17.9408 22.1368 18.3849 21.9444L17.5897 20.1092H17.5897L16.981 22.0144ZM15.9647 21.3638C16.1231 21.4934 16.2793 21.6219 16.4198 21.722C16.5684 21.8279 16.7519 21.9412 16.981 22.0144L17.5897 20.1092C17.6374 20.1245 17.6457 20.1398 17.5803 20.0932C17.5068 20.0408 17.4101 19.9623 17.2312 19.8159L15.9647 21.3638ZM15.9732 21.3707L15.9732 21.3707L17.2226 19.809L17.2226 19.809L15.9732 21.3707ZM15.2262 20.7596C15.1228 20.7457 15.1111 20.7055 15.2738 20.8186C15.4286 20.9262 15.6324 21.0919 15.9647 21.3638L17.2311 19.8159C16.925 19.5654 16.6499 19.3394 16.4152 19.1763C16.1886 19.0188 15.8769 18.8291 15.4928 18.7774L15.2262 20.7596ZM15.2262 20.7596H15.2262L15.4928 18.7774C14.7807 18.6816 14.0719 18.9752 13.636 19.5465L15.2262 20.7596ZM15.1312 21.7093C15.1739 21.282 15.2008 21.0206 15.2342 20.8351C15.2693 20.64 15.2894 20.6766 15.2262 20.7596L13.636 19.5465C13.401 19.8547 13.3147 20.2092 13.2658 20.4809C13.2152 20.7621 13.1805 21.1165 13.1411 21.5103L15.1312 21.7093ZM14.8724 22.8884C14.9828 22.6745 15.0324 22.4647 15.0626 22.2846C15.0912 22.1144 15.1108 21.913 15.1312 21.7093L13.1411 21.5103C13.1181 21.7404 13.1052 21.8644 13.0902 21.9534C13.0769 22.0327 13.072 22.016 13.095 21.9714L14.8724 22.8884ZM13.8306 23.8313C14.2805 23.6533 14.6506 23.3184 14.8724 22.8884L13.095 21.9714L13.095 21.9714L13.8306 23.8313ZM12.6316 23.9714C12.8363 23.9714 13.0387 23.972 13.2109 23.9604C13.393 23.9483 13.6068 23.9198 13.8306 23.8313L13.095 21.9714C13.1416 21.953 13.1577 21.9595 13.0776 21.9649C12.9875 21.9709 12.8629 21.9714 12.6316 21.9714V23.9714ZM11.3682 23.9714H12.6316V21.9714H11.3682V23.9714ZM10.1696 23.8313C10.3933 23.9198 10.607 23.9483 10.7891 23.9605C10.9613 23.972 11.1636 23.9714 11.3682 23.9714V21.9714C11.137 21.9714 11.0125 21.9709 10.9224 21.9649C10.8423 21.9596 10.8584 21.953 10.905 21.9714L10.1696 23.8313ZM9.1275 22.8882C9.34933 23.3183 9.71958 23.6534 10.1696 23.8313L10.905 21.9714L9.1275 22.8882ZM8.86882 21.7095C8.88918 21.9131 8.9088 22.1145 8.93737 22.2846C8.96759 22.4646 9.01721 22.6744 9.1275 22.8882L10.905 21.9714C10.9279 22.0159 10.9231 22.0327 10.9098 21.9535C10.8948 21.8644 10.8819 21.7405 10.8589 21.5105L8.86882 21.7095ZM8.77387 20.76C8.7106 20.6771 8.73073 20.6404 8.76584 20.8354C8.79922 21.0209 8.82609 21.2823 8.86882 21.7095L10.8589 21.5105C10.8195 21.1168 10.7848 20.7624 10.7342 20.4812C10.6853 20.2095 10.599 19.855 10.364 19.5469L8.77387 20.76ZM8.77387 20.76L10.364 19.5469C9.92815 18.9756 9.21939 18.682 8.50728 18.7778L8.77387 20.76ZM8.03531 21.3643C8.36763 21.0924 8.5714 20.9266 8.72619 20.819C8.88895 20.7059 8.87724 20.7461 8.77387 20.76L8.50727 18.7778C8.12318 18.8295 7.81149 19.0191 7.58481 19.1767C7.35015 19.3398 7.07504 19.5658 6.76884 19.8163L8.03531 21.3643ZM8.06643 21.3377L8.06644 21.3377L6.73771 19.8429L6.7377 19.8429L8.06643 21.3377ZM7.01887 22.0149C7.24807 21.9416 7.4315 21.8284 7.58013 21.7225C7.72064 21.6224 7.87691 21.4938 8.0353 21.3643L6.76883 19.8163C6.58988 19.9628 6.49316 20.0412 6.41963 20.0936C6.35422 20.1402 6.36258 20.1249 6.41029 20.1097L7.01887 22.0149ZM5.61515 21.9448C6.05919 22.1372 6.55791 22.1621 7.01887 22.0149L6.41029 20.1097L6.41029 20.1097L5.61515 21.9448ZM4.6685 21.1963C4.81321 21.341 4.95592 21.4845 5.08577 21.5981C5.22313 21.7182 5.39438 21.8492 5.61515 21.9448L6.41029 20.1097C6.45624 20.1296 6.46304 20.1456 6.40259 20.0928C6.33464 20.0333 6.2462 19.9456 6.08271 19.7821L4.6685 21.1963ZM3.77506 20.3029L4.6685 21.1963L6.08271 19.7821L5.18927 18.8887L3.77506 20.3029ZM3.02657 19.3563C3.12223 19.577 3.25318 19.7483 3.37333 19.8856C3.48692 20.0155 3.63036 20.1582 3.77506 20.3029L5.18928 18.8887C5.02579 18.7252 4.93809 18.6368 4.87864 18.5688C4.82577 18.5084 4.8418 18.5152 4.86171 18.5611L3.02657 19.3563ZM2.95656 17.9525C2.8093 18.4135 2.83417 18.9122 3.02657 19.3563L4.86171 18.5611V18.5611L2.95656 17.9525ZM3.60715 16.9361C3.47756 17.0945 3.34903 17.2508 3.24892 17.3913C3.14303 17.5399 3.02977 17.7233 2.95656 17.9525L4.86171 18.5611C4.84647 18.6088 4.83119 18.6172 4.87779 18.5518C4.93018 18.4782 5.00865 18.3815 5.15506 18.2026L3.60715 16.9361ZM4.2114 16.1976C4.2253 16.0942 4.26548 16.0825 4.15237 16.2452C4.0448 16.4 3.87903 16.6038 3.60715 16.9361L5.15506 18.2026C5.40558 17.8964 5.63162 17.6213 5.79469 17.3866C5.95222 17.16 6.14188 16.8483 6.19355 16.4642L4.2114 16.1976ZM4.2114 16.1976L4.2114 16.1976L6.19355 16.4642C6.28934 15.7521 5.99575 15.0433 5.42445 14.6074L4.2114 16.1976ZM3.26193 16.1026C3.68915 16.1453 3.95044 16.1722 4.13595 16.2056C4.33101 16.2407 4.29432 16.2608 4.2114 16.1976L5.42445 14.6074C5.11633 14.3724 4.76184 14.2861 4.49017 14.2372C4.20894 14.1866 3.85458 14.1519 3.46093 14.1125L3.26193 16.1026ZM2.08323 15.844C2.29705 15.9542 2.50683 16.0039 2.6868 16.0341C2.85693 16.0626 3.05831 16.0823 3.26193 16.1026L3.46094 14.1125C3.23089 14.0895 3.10701 14.0766 3.01798 14.0617C2.93878 14.0484 2.95549 14.0435 3 14.0664L2.08323 15.844ZM1.14009 14.8018C1.31803 15.2519 1.65311 15.6221 2.08323 15.844L3 14.0664H3L1.14009 14.8018ZM1 13.6032C1 13.8078 0.999483 14.0102 1.01098 14.1823C1.02314 14.3644 1.05163 14.5781 1.14009 14.8018L3 14.0664C3.01841 14.113 3.01188 14.1292 3.00653 14.049C3.00052 13.959 3 13.8344 3 13.6032H1ZM1 12.3398V13.6032H3V12.3398H1ZM1.14017 11.1409C1.05166 11.3647 1.02315 11.5784 1.01098 11.7605C0.999483 11.9327 1 12.1351 1 12.3398H3C3 12.1085 3.00052 11.9839 3.00654 11.8938C3.01189 11.8137 3.01842 11.8298 3 11.8764L1.14017 11.1409ZM2.08305 10.099C1.65308 10.3208 1.3181 10.691 1.14017 11.1409L3 11.8764L3 11.8764L2.08305 10.099ZM3.26205 9.84024C3.05837 9.86061 2.85694 9.88023 2.68677 9.90881C2.50676 9.93904 2.29692 9.98868 2.08305 10.099L3 11.8764C2.95548 11.8994 2.93877 11.8945 3.01798 11.8812C3.10704 11.8662 3.23094 11.8533 3.46105 11.8303L3.26205 9.84024ZM3.36155 9.83528H3.36155V11.8353H3.36155V9.83528ZM3.36156 9.83528H3.36155V11.8353H3.36156V9.83528ZM4.21177 9.74527C4.29471 9.68198 4.33141 9.70212 4.1363 9.73724C3.95075 9.77063 3.68939 9.79751 3.26205 9.84024L3.46106 11.8303C3.85482 11.7909 4.20927 11.7562 4.49056 11.7056C4.76231 11.6567 5.1169 11.5704 5.42506 11.3352L4.21177 9.74527ZM4.21177 9.74527L4.21178 9.74527L5.42506 11.3352C5.99613 10.8994 6.28962 10.1909 6.19396 9.47893L4.21177 9.74527ZM3.60732 9.00649C3.87929 9.3389 4.04511 9.54274 4.15272 9.69757C4.26586 9.86039 4.22567 9.84867 4.21177 9.74527L6.19396 9.47893C6.14234 9.09473 5.95263 8.78295 5.79506 8.55621C5.63195 8.3215 5.40584 8.04631 5.15523 7.74002L3.60732 9.00649ZM2.95652 7.98966C3.02973 8.21895 3.14303 8.40245 3.24896 8.55114C3.3491 8.6917 3.47768 8.84804 3.60732 9.00649L5.15523 7.74002C5.00876 7.561 4.93026 7.46423 4.87785 7.39067C4.83123 7.32523 4.84651 7.33359 4.86175 7.38132L2.95652 7.98966ZM3.02651 6.58642C2.83424 7.03031 2.80938 7.52884 2.95652 7.98966L4.86175 7.38132L3.02651 6.58642ZM3.77523 5.63942C3.63047 5.78417 3.48698 5.92693 3.37335 6.05683C3.25316 6.19424 3.12217 6.36556 3.02651 6.58642L4.86175 7.38132C4.84184 7.42729 4.8258 7.43409 4.8787 7.37362C4.93816 7.30564 5.02589 7.21718 5.18944 7.05363L3.77523 5.63942ZM4.66855 4.7461L3.77523 5.63942L5.18944 7.05363L6.08276 6.16031L4.66855 4.7461ZM4.66855 4.7461L4.66855 4.7461L6.08276 6.16031L6.08276 6.16031L4.66855 4.7461ZM5.6152 3.99759C5.39443 4.09325 5.22317 4.2242 5.08582 4.34436C4.95597 4.45795 4.81325 4.60139 4.66855 4.7461L6.08276 6.16031C6.24625 5.99682 6.33469 5.90912 6.40264 5.84967C6.46309 5.79679 6.45629 5.81283 6.41034 5.83274L5.6152 3.99759ZM7.01892 3.92758C6.55795 3.78033 6.05923 3.8052 5.6152 3.99759L6.41033 5.83274H6.41034L7.01892 3.92758ZM8.03543 4.57824C7.87702 4.44863 7.72073 4.32008 7.58021 4.21997C7.43158 4.11407 7.24813 4.0008 7.01892 3.92758L6.41034 5.83274C6.36262 5.81749 6.35426 5.80221 6.41969 5.84883C6.49324 5.90123 6.58999 5.97972 6.76896 6.12616L8.03543 4.57824ZM8.77391 5.18245C8.87727 5.19637 8.88897 5.23653 8.72621 5.12341C8.57144 5.01584 8.36769 4.85009 8.03543 4.57824L6.76896 6.12616C7.07512 6.37665 7.35018 6.60265 7.58477 6.7657C7.81138 6.9232 8.123 7.11284 8.50697 7.16456L8.77391 5.18245ZM8.77391 5.18245L8.77391 5.18245L8.50697 7.16456C9.21932 7.26049 9.92836 6.9668 10.3642 6.39526L8.77391 5.18245ZM8.86883 4.23324C8.82612 4.66034 8.79926 4.92156 8.76589 5.10702C8.7308 5.30203 8.71068 5.26536 8.77391 5.18245L10.3642 6.39526C10.5992 6.0872 10.6854 5.73279 10.7343 5.4612C10.7849 5.18004 10.8196 4.82579 10.8589 4.43224L8.86883 4.23324ZM9.12739 3.05484C9.01716 3.26862 8.96756 3.47835 8.93736 3.65827C8.9088 3.82835 8.88919 4.02968 8.86883 4.23324L10.8589 4.43224C10.8819 4.20226 10.8948 4.07842 10.9098 3.98941C10.923 3.91023 10.9279 3.92694 10.905 3.97143L9.12739 3.05484ZM10.1698 2.11145C9.71962 2.2894 9.34924 2.62459 9.12739 3.05484L10.905 3.97144L10.905 3.97144L10.1698 2.11145ZM11.3681 1.97144C11.1635 1.97144 10.9612 1.97092 10.7892 1.98241C10.6071 1.99456 10.3935 2.02304 10.1698 2.11145L10.905 3.97144C10.8584 3.98984 10.8423 3.98331 10.9224 3.97797C11.0125 3.97195 11.137 3.97144 11.3681 3.97144V1.97144ZM12.6318 1.97144H11.3681V3.97144H12.6318V1.97144ZM13.8304 2.11153C13.6066 2.02307 13.393 1.99457 13.2109 1.98241C13.0387 1.97092 12.8364 1.97144 12.6318 1.97144V3.97144C12.863 3.97144 12.9875 3.97195 13.0776 3.97797C13.1577 3.98332 13.1416 3.98985 13.095 3.97144L13.8304 2.11153ZM14.8725 3.05466C14.6507 2.62455 14.2804 2.28947 13.8304 2.11153L13.095 3.97144L13.095 3.97143L14.8725 3.05466ZM15 12.9714C15 14.6283 13.6569 15.9714 12 15.9714V17.9714C14.7614 17.9714 17 15.7329 17 12.9714H15ZM12 9.97144C13.6569 9.97144 15 11.3146 15 12.9714H17C17 10.21 14.7614 7.97144 12 7.97144V9.97144ZM9 12.9714C9 11.3146 10.3431 9.97144 12 9.97144V7.97144C9.23858 7.97144 7 10.21 7 12.9714H9ZM12 15.9714C10.3431 15.9714 9 14.6283 9 12.9714H7C7 15.7329 9.23858 17.9714 12 17.9714V15.9714Z" fill="#333333"/>
</svg>
