<svg width="24" height="25" viewBox="0 0 24 25" fill="none" xmlns="http://www.w3.org/2000/svg">
    <path fill-rule="evenodd" clip-rule="evenodd" d="M13.9838 3.51305C14.0711 3.68236 14.0928 3.8992 14.1361 4.33287C14.2182 5.15374 14.2593 5.56417 14.4311 5.78936C14.649 6.07502 15.0034 6.22182 15.3595 6.17391C15.6402 6.13615 15.9594 5.87496 16.5979 5.35257C16.9352 5.07658 17.1038 4.93859 17.2853 4.88062C17.5158 4.80698 17.7652 4.81942 17.9872 4.91563C18.162 4.99137 18.3161 5.14546 18.6243 5.45363L19.5178 6.3471C19.8259 6.65529 19.98 6.80938 20.0558 6.98419C20.152 7.20621 20.1644 7.45559 20.0908 7.68608C20.0328 7.86756 19.8948 8.03622 19.6188 8.37354C19.0964 9.01203 18.8352 9.33128 18.7975 9.61199C18.7496 9.96806 18.8964 10.3225 19.182 10.5404C19.4072 10.7122 19.8176 10.7532 20.6385 10.8353C21.0722 10.8787 21.2891 10.9003 21.4584 10.9877C21.6734 11.0986 21.841 11.2837 21.9299 11.5087C22 11.6859 22 11.9038 22 12.3397V13.6033C22 14.0391 22 14.2569 21.93 14.434C21.841 14.6591 21.6734 14.8443 21.4583 14.9552C21.289 15.0425 21.0722 15.0642 20.6386 15.1076L20.6386 15.1076C19.818 15.1896 19.4077 15.2307 19.1825 15.4023C18.8967 15.6203 18.7499 15.9748 18.7979 16.331C18.8357 16.6116 19.0968 16.9308 19.619 17.569C19.8949 17.9062 20.0328 18.0748 20.0908 18.2562C20.1645 18.4868 20.152 18.7363 20.0558 18.9584C19.98 19.1331 19.826 19.2871 19.5179 19.5952L18.6243 20.4888C18.3162 20.797 18.1621 20.9511 17.9873 21.0268C17.7652 21.123 17.5159 21.1354 17.2854 21.0618C17.1039 21.0038 16.9352 20.8658 16.5979 20.5899L16.5979 20.5898C15.9594 20.0675 15.6402 19.8063 15.3595 19.7685C15.0034 19.7206 14.649 19.8674 14.4311 20.1531C14.2593 20.3783 14.2183 20.7888 14.1362 21.6098C14.0928 22.0436 14.0711 22.2606 13.9837 22.4299C13.8728 22.6449 13.6877 22.8124 13.4628 22.9013C13.2856 22.9714 13.0676 22.9714 12.6316 22.9714H11.3682C10.9324 22.9714 10.7145 22.9714 10.5373 22.9014C10.3123 22.8124 10.1272 22.6449 10.0162 22.4298C9.92891 22.2605 9.90722 22.0437 9.86385 21.61C9.78176 20.7891 9.74072 20.3786 9.56892 20.1534C9.35101 19.8678 8.99663 19.721 8.64057 19.7689C8.35985 19.8067 8.04059 20.0679 7.40208 20.5903L7.40206 20.5903C7.06473 20.8663 6.89607 21.0043 6.71458 21.0623C6.4841 21.1359 6.23474 21.1235 6.01272 21.0273C5.8379 20.9515 5.6838 20.7974 5.37561 20.4892L4.48217 19.5958C4.17398 19.2876 4.01988 19.1335 3.94414 18.9587C3.84794 18.7367 3.8355 18.4873 3.90913 18.2568C3.96711 18.0753 4.10511 17.9067 4.3811 17.5693C4.90351 16.9308 5.16471 16.6116 5.20247 16.3309C5.25037 15.9748 5.10357 15.6204 4.81792 15.4025C4.59273 15.2307 4.1823 15.1897 3.36143 15.1076C2.92776 15.0642 2.71093 15.0425 2.54161 14.9552C2.32656 14.8443 2.15902 14.6591 2.07005 14.4341C2 14.257 2 14.039 2 13.6032V12.3398C2 11.9038 2 11.6859 2.07008 11.5086C2.15905 11.2837 2.32654 11.0986 2.54152 10.9877C2.71088 10.9003 2.92777 10.8787 3.36155 10.8353H3.36155H3.36156C4.18264 10.7532 4.59319 10.7121 4.81842 10.5402C5.10395 10.3224 5.2507 9.96807 5.20287 9.6121C5.16514 9.33131 4.90385 9.01196 4.38128 8.37325C4.10516 8.03578 3.96711 7.86705 3.90914 7.68549C3.83557 7.45508 3.848 7.20581 3.94413 6.98387C4.01988 6.80898 4.17403 6.65483 4.48233 6.34652L5.37565 5.4532L5.37566 5.4532C5.68385 5.14501 5.83795 4.99091 6.01277 4.91516C6.23478 4.81897 6.48414 4.80653 6.71463 4.88016C6.89612 4.93813 7.06481 5.07615 7.4022 5.3522C8.04061 5.87454 8.35982 6.13571 8.64044 6.1735C8.99661 6.22147 9.35113 6.07462 9.56907 5.78885C9.74077 5.5637 9.78181 5.15338 9.86387 4.33274C9.90722 3.89919 9.9289 3.68242 10.0162 3.51314C10.1271 3.29801 10.3123 3.13042 10.5374 3.04144C10.7145 2.97144 10.9324 2.97144 11.3681 2.97144H12.6318C13.0676 2.97144 13.2855 2.97144 13.4627 3.04148C13.6877 3.13045 13.8728 3.29799 13.9838 3.51305ZM12 16.9714C14.2091 16.9714 16 15.1806 16 12.9714C16 10.7623 14.2091 8.97144 12 8.97144C9.79086 8.97144 8 10.7623 8 12.9714C8 15.1806 9.79086 16.9714 12 16.9714Z" fill="#333333"/>
</svg>
